<?xml version="1.0" encoding="utf-8" standalone="no"?>
<!DOCTYPE svg PUBLIC "-//W3C//DTD SVG 1.1//EN"
  "http://www.w3.org/Graphics/SVG/1.1/DTD/svg11.dtd">
<svg xmlns:xlink="http://www.w3.org/1999/xlink" width="576pt" height="288pt" viewBox="0 0 576 288" xmlns="http://www.w3.org/2000/svg" version="1.1">
 <metadata>
  <rdf:RDF xmlns:dc="http://purl.org/dc/elements/1.1/" xmlns:cc="http://creativecommons.org/ns#" xmlns:rdf="http://www.w3.org/1999/02/22-rdf-syntax-ns#">
   <cc:Work>
    <dc:type rdf:resource="http://purl.org/dc/dcmitype/StillImage"/>
    <dc:date>2025-03-05T11:25:59.763863</dc:date>
    <dc:format>image/svg+xml</dc:format>
    <dc:creator>
     <cc:Agent>
      <dc:title>Matplotlib v3.10.0, https://matplotlib.org/</dc:title>
     </cc:Agent>
    </dc:creator>
   </cc:Work>
  </rdf:RDF>
 </metadata>
 <defs>
  <style type="text/css">*{stroke-linejoin: round; stroke-linecap: butt}</style>
 </defs>
 <g id="figure_1">
  <g id="patch_1">
   <path d="M 0 288 
L 576 288 
L 576 0 
L 0 0 
z
" style="fill: #ffffff"/>
  </g>
  <g id="axes_1">
   <g id="patch_2">
    <path d="M 57.17 246.04 
L 565.2 246.04 
L 565.2 26.88 
L 57.17 26.88 
z
" style="fill: #ffffff"/>
   </g>
   <g id="matplotlib.axis_1">
    <g id="xtick_1">
     <g id="line2d_1">
      <defs>
       <path id="m23bf6cf8b9" d="M 0 0 
L 0 3.5 
" style="stroke: #000000; stroke-width: 0.8"/>
      </defs>
      <g>
       <use xlink:href="#m23bf6cf8b9" x="66.738848" y="246.04" style="stroke: #000000; stroke-width: 0.8"/>
      </g>
     </g>
     <g id="text_1">
      <!-- 2017-09 -->
      <g transform="translate(45.847441 260.638438) scale(0.1 -0.1)">
       <defs>
        <path id="DejaVuSans-32" d="M 1228 531 
L 3431 531 
L 3431 0 
L 469 0 
L 469 531 
Q 828 903 1448 1529 
Q 2069 2156 2228 2338 
Q 2531 2678 2651 2914 
Q 2772 3150 2772 3378 
Q 2772 3750 2511 3984 
Q 2250 4219 1831 4219 
Q 1534 4219 1204 4116 
Q 875 4013 500 3803 
L 500 4441 
Q 881 4594 1212 4672 
Q 1544 4750 1819 4750 
Q 2544 4750 2975 4387 
Q 3406 4025 3406 3419 
Q 3406 3131 3298 2873 
Q 3191 2616 2906 2266 
Q 2828 2175 2409 1742 
Q 1991 1309 1228 531 
z
" transform="scale(0.015625)"/>
        <path id="DejaVuSans-30" d="M 2034 4250 
Q 1547 4250 1301 3770 
Q 1056 3291 1056 2328 
Q 1056 1369 1301 889 
Q 1547 409 2034 409 
Q 2525 409 2770 889 
Q 3016 1369 3016 2328 
Q 3016 3291 2770 3770 
Q 2525 4250 2034 4250 
z
M 2034 4750 
Q 2819 4750 3233 4129 
Q 3647 3509 3647 2328 
Q 3647 1150 3233 529 
Q 2819 -91 2034 -91 
Q 1250 -91 836 529 
Q 422 1150 422 2328 
Q 422 3509 836 4129 
Q 1250 4750 2034 4750 
z
" transform="scale(0.015625)"/>
        <path id="DejaVuSans-31" d="M 794 531 
L 1825 531 
L 1825 4091 
L 703 3866 
L 703 4441 
L 1819 4666 
L 2450 4666 
L 2450 531 
L 3481 531 
L 3481 0 
L 794 0 
L 794 531 
z
" transform="scale(0.015625)"/>
        <path id="DejaVuSans-37" d="M 525 4666 
L 3525 4666 
L 3525 4397 
L 1831 0 
L 1172 0 
L 2766 4134 
L 525 4134 
L 525 4666 
z
" transform="scale(0.015625)"/>
        <path id="DejaVuSans-2d" d="M 313 2009 
L 1997 2009 
L 1997 1497 
L 313 1497 
L 313 2009 
z
" transform="scale(0.015625)"/>
        <path id="DejaVuSans-39" d="M 703 97 
L 703 672 
Q 941 559 1184 500 
Q 1428 441 1663 441 
Q 2288 441 2617 861 
Q 2947 1281 2994 2138 
Q 2813 1869 2534 1725 
Q 2256 1581 1919 1581 
Q 1219 1581 811 2004 
Q 403 2428 403 3163 
Q 403 3881 828 4315 
Q 1253 4750 1959 4750 
Q 2769 4750 3195 4129 
Q 3622 3509 3622 2328 
Q 3622 1225 3098 567 
Q 2575 -91 1691 -91 
Q 1453 -91 1209 -44 
Q 966 3 703 97 
z
M 1959 2075 
Q 2384 2075 2632 2365 
Q 2881 2656 2881 3163 
Q 2881 3666 2632 3958 
Q 2384 4250 1959 4250 
Q 1534 4250 1286 3958 
Q 1038 3666 1038 3163 
Q 1038 2656 1286 2365 
Q 1534 2075 1959 2075 
z
" transform="scale(0.015625)"/>
       </defs>
       <use xlink:href="#DejaVuSans-32"/>
       <use xlink:href="#DejaVuSans-30" transform="translate(63.623047 0)"/>
       <use xlink:href="#DejaVuSans-31" transform="translate(127.246094 0)"/>
       <use xlink:href="#DejaVuSans-37" transform="translate(190.869141 0)"/>
       <use xlink:href="#DejaVuSans-2d" transform="translate(254.492188 0)"/>
       <use xlink:href="#DejaVuSans-30" transform="translate(290.576172 0)"/>
       <use xlink:href="#DejaVuSans-39" transform="translate(354.199219 0)"/>
      </g>
     </g>
    </g>
    <g id="xtick_2">
     <g id="line2d_2">
      <g>
       <use xlink:href="#m23bf6cf8b9" x="116.73454" y="246.04" style="stroke: #000000; stroke-width: 0.8"/>
      </g>
     </g>
     <g id="text_2">
      <!-- 2018-01 -->
      <g transform="translate(95.843134 260.638438) scale(0.1 -0.1)">
       <defs>
        <path id="DejaVuSans-38" d="M 2034 2216 
Q 1584 2216 1326 1975 
Q 1069 1734 1069 1313 
Q 1069 891 1326 650 
Q 1584 409 2034 409 
Q 2484 409 2743 651 
Q 3003 894 3003 1313 
Q 3003 1734 2745 1975 
Q 2488 2216 2034 2216 
z
M 1403 2484 
Q 997 2584 770 2862 
Q 544 3141 544 3541 
Q 544 4100 942 4425 
Q 1341 4750 2034 4750 
Q 2731 4750 3128 4425 
Q 3525 4100 3525 3541 
Q 3525 3141 3298 2862 
Q 3072 2584 2669 2484 
Q 3125 2378 3379 2068 
Q 3634 1759 3634 1313 
Q 3634 634 3220 271 
Q 2806 -91 2034 -91 
Q 1263 -91 848 271 
Q 434 634 434 1313 
Q 434 1759 690 2068 
Q 947 2378 1403 2484 
z
M 1172 3481 
Q 1172 3119 1398 2916 
Q 1625 2713 2034 2713 
Q 2441 2713 2670 2916 
Q 2900 3119 2900 3481 
Q 2900 3844 2670 4047 
Q 2441 4250 2034 4250 
Q 1625 4250 1398 4047 
Q 1172 3844 1172 3481 
z
" transform="scale(0.015625)"/>
       </defs>
       <use xlink:href="#DejaVuSans-32"/>
       <use xlink:href="#DejaVuSans-30" transform="translate(63.623047 0)"/>
       <use xlink:href="#DejaVuSans-31" transform="translate(127.246094 0)"/>
       <use xlink:href="#DejaVuSans-38" transform="translate(190.869141 0)"/>
       <use xlink:href="#DejaVuSans-2d" transform="translate(254.492188 0)"/>
       <use xlink:href="#DejaVuSans-30" transform="translate(290.576172 0)"/>
       <use xlink:href="#DejaVuSans-31" transform="translate(354.199219 0)"/>
      </g>
     </g>
    </g>
    <g id="xtick_3">
     <g id="line2d_3">
      <g>
       <use xlink:href="#m23bf6cf8b9" x="165.910631" y="246.04" style="stroke: #000000; stroke-width: 0.8"/>
      </g>
     </g>
     <g id="text_3">
      <!-- 2018-05 -->
      <g transform="translate(145.019225 260.638438) scale(0.1 -0.1)">
       <defs>
        <path id="DejaVuSans-35" d="M 691 4666 
L 3169 4666 
L 3169 4134 
L 1269 4134 
L 1269 2991 
Q 1406 3038 1543 3061 
Q 1681 3084 1819 3084 
Q 2600 3084 3056 2656 
Q 3513 2228 3513 1497 
Q 3513 744 3044 326 
Q 2575 -91 1722 -91 
Q 1428 -91 1123 -41 
Q 819 9 494 109 
L 494 744 
Q 775 591 1075 516 
Q 1375 441 1709 441 
Q 2250 441 2565 725 
Q 2881 1009 2881 1497 
Q 2881 1984 2565 2268 
Q 2250 2553 1709 2553 
Q 1456 2553 1204 2497 
Q 953 2441 691 2322 
L 691 4666 
z
" transform="scale(0.015625)"/>
       </defs>
       <use xlink:href="#DejaVuSans-32"/>
       <use xlink:href="#DejaVuSans-30" transform="translate(63.623047 0)"/>
       <use xlink:href="#DejaVuSans-31" transform="translate(127.246094 0)"/>
       <use xlink:href="#DejaVuSans-38" transform="translate(190.869141 0)"/>
       <use xlink:href="#DejaVuSans-2d" transform="translate(254.492188 0)"/>
       <use xlink:href="#DejaVuSans-30" transform="translate(290.576172 0)"/>
       <use xlink:href="#DejaVuSans-35" transform="translate(354.199219 0)"/>
      </g>
     </g>
    </g>
    <g id="xtick_4">
     <g id="line2d_4">
      <g>
       <use xlink:href="#m23bf6cf8b9" x="216.316124" y="246.04" style="stroke: #000000; stroke-width: 0.8"/>
      </g>
     </g>
     <g id="text_4">
      <!-- 2018-09 -->
      <g transform="translate(195.424718 260.638438) scale(0.1 -0.1)">
       <use xlink:href="#DejaVuSans-32"/>
       <use xlink:href="#DejaVuSans-30" transform="translate(63.623047 0)"/>
       <use xlink:href="#DejaVuSans-31" transform="translate(127.246094 0)"/>
       <use xlink:href="#DejaVuSans-38" transform="translate(190.869141 0)"/>
       <use xlink:href="#DejaVuSans-2d" transform="translate(254.492188 0)"/>
       <use xlink:href="#DejaVuSans-30" transform="translate(290.576172 0)"/>
       <use xlink:href="#DejaVuSans-39" transform="translate(354.199219 0)"/>
      </g>
     </g>
    </g>
    <g id="xtick_5">
     <g id="line2d_5">
      <g>
       <use xlink:href="#m23bf6cf8b9" x="266.311817" y="246.04" style="stroke: #000000; stroke-width: 0.8"/>
      </g>
     </g>
     <g id="text_5">
      <!-- 2019-01 -->
      <g transform="translate(245.420411 260.638438) scale(0.1 -0.1)">
       <use xlink:href="#DejaVuSans-32"/>
       <use xlink:href="#DejaVuSans-30" transform="translate(63.623047 0)"/>
       <use xlink:href="#DejaVuSans-31" transform="translate(127.246094 0)"/>
       <use xlink:href="#DejaVuSans-39" transform="translate(190.869141 0)"/>
       <use xlink:href="#DejaVuSans-2d" transform="translate(254.492188 0)"/>
       <use xlink:href="#DejaVuSans-30" transform="translate(290.576172 0)"/>
       <use xlink:href="#DejaVuSans-31" transform="translate(354.199219 0)"/>
      </g>
     </g>
    </g>
    <g id="xtick_6">
     <g id="line2d_6">
      <g>
       <use xlink:href="#m23bf6cf8b9" x="315.487908" y="246.04" style="stroke: #000000; stroke-width: 0.8"/>
      </g>
     </g>
     <g id="text_6">
      <!-- 2019-05 -->
      <g transform="translate(294.596502 260.638438) scale(0.1 -0.1)">
       <use xlink:href="#DejaVuSans-32"/>
       <use xlink:href="#DejaVuSans-30" transform="translate(63.623047 0)"/>
       <use xlink:href="#DejaVuSans-31" transform="translate(127.246094 0)"/>
       <use xlink:href="#DejaVuSans-39" transform="translate(190.869141 0)"/>
       <use xlink:href="#DejaVuSans-2d" transform="translate(254.492188 0)"/>
       <use xlink:href="#DejaVuSans-30" transform="translate(290.576172 0)"/>
       <use xlink:href="#DejaVuSans-35" transform="translate(354.199219 0)"/>
      </g>
     </g>
    </g>
    <g id="xtick_7">
     <g id="line2d_7">
      <g>
       <use xlink:href="#m23bf6cf8b9" x="365.893401" y="246.04" style="stroke: #000000; stroke-width: 0.8"/>
      </g>
     </g>
     <g id="text_7">
      <!-- 2019-09 -->
      <g transform="translate(345.001995 260.638438) scale(0.1 -0.1)">
       <use xlink:href="#DejaVuSans-32"/>
       <use xlink:href="#DejaVuSans-30" transform="translate(63.623047 0)"/>
       <use xlink:href="#DejaVuSans-31" transform="translate(127.246094 0)"/>
       <use xlink:href="#DejaVuSans-39" transform="translate(190.869141 0)"/>
       <use xlink:href="#DejaVuSans-2d" transform="translate(254.492188 0)"/>
       <use xlink:href="#DejaVuSans-30" transform="translate(290.576172 0)"/>
       <use xlink:href="#DejaVuSans-39" transform="translate(354.199219 0)"/>
      </g>
     </g>
    </g>
    <g id="xtick_8">
     <g id="line2d_8">
      <g>
       <use xlink:href="#m23bf6cf8b9" x="415.889094" y="246.04" style="stroke: #000000; stroke-width: 0.8"/>
      </g>
     </g>
     <g id="text_8">
      <!-- 2020-01 -->
      <g transform="translate(394.997687 260.638438) scale(0.1 -0.1)">
       <use xlink:href="#DejaVuSans-32"/>
       <use xlink:href="#DejaVuSans-30" transform="translate(63.623047 0)"/>
       <use xlink:href="#DejaVuSans-32" transform="translate(127.246094 0)"/>
       <use xlink:href="#DejaVuSans-30" transform="translate(190.869141 0)"/>
       <use xlink:href="#DejaVuSans-2d" transform="translate(254.492188 0)"/>
       <use xlink:href="#DejaVuSans-30" transform="translate(290.576172 0)"/>
       <use xlink:href="#DejaVuSans-31" transform="translate(354.199219 0)"/>
      </g>
     </g>
    </g>
    <g id="xtick_9">
     <g id="line2d_9">
      <g>
       <use xlink:href="#m23bf6cf8b9" x="465.474985" y="246.04" style="stroke: #000000; stroke-width: 0.8"/>
      </g>
     </g>
     <g id="text_9">
      <!-- 2020-05 -->
      <g transform="translate(444.583579 260.638438) scale(0.1 -0.1)">
       <use xlink:href="#DejaVuSans-32"/>
       <use xlink:href="#DejaVuSans-30" transform="translate(63.623047 0)"/>
       <use xlink:href="#DejaVuSans-32" transform="translate(127.246094 0)"/>
       <use xlink:href="#DejaVuSans-30" transform="translate(190.869141 0)"/>
       <use xlink:href="#DejaVuSans-2d" transform="translate(254.492188 0)"/>
       <use xlink:href="#DejaVuSans-30" transform="translate(290.576172 0)"/>
       <use xlink:href="#DejaVuSans-35" transform="translate(354.199219 0)"/>
      </g>
     </g>
    </g>
    <g id="xtick_10">
     <g id="line2d_10">
      <g>
       <use xlink:href="#m23bf6cf8b9" x="515.880479" y="246.04" style="stroke: #000000; stroke-width: 0.8"/>
      </g>
     </g>
     <g id="text_10">
      <!-- 2020-09 -->
      <g transform="translate(494.989072 260.638438) scale(0.1 -0.1)">
       <use xlink:href="#DejaVuSans-32"/>
       <use xlink:href="#DejaVuSans-30" transform="translate(63.623047 0)"/>
       <use xlink:href="#DejaVuSans-32" transform="translate(127.246094 0)"/>
       <use xlink:href="#DejaVuSans-30" transform="translate(190.869141 0)"/>
       <use xlink:href="#DejaVuSans-2d" transform="translate(254.492188 0)"/>
       <use xlink:href="#DejaVuSans-30" transform="translate(290.576172 0)"/>
       <use xlink:href="#DejaVuSans-39" transform="translate(354.199219 0)"/>
      </g>
     </g>
    </g>
    <g id="text_11">
     <!-- Date -->
     <g transform="translate(299.234219 274.316562) scale(0.1 -0.1)">
      <defs>
       <path id="DejaVuSans-44" d="M 1259 4147 
L 1259 519 
L 2022 519 
Q 2988 519 3436 956 
Q 3884 1394 3884 2338 
Q 3884 3275 3436 3711 
Q 2988 4147 2022 4147 
L 1259 4147 
z
M 628 4666 
L 1925 4666 
Q 3281 4666 3915 4102 
Q 4550 3538 4550 2338 
Q 4550 1131 3912 565 
Q 3275 0 1925 0 
L 628 0 
L 628 4666 
z
" transform="scale(0.015625)"/>
       <path id="DejaVuSans-61" d="M 2194 1759 
Q 1497 1759 1228 1600 
Q 959 1441 959 1056 
Q 959 750 1161 570 
Q 1363 391 1709 391 
Q 2188 391 2477 730 
Q 2766 1069 2766 1631 
L 2766 1759 
L 2194 1759 
z
M 3341 1997 
L 3341 0 
L 2766 0 
L 2766 531 
Q 2569 213 2275 61 
Q 1981 -91 1556 -91 
Q 1019 -91 701 211 
Q 384 513 384 1019 
Q 384 1609 779 1909 
Q 1175 2209 1959 2209 
L 2766 2209 
L 2766 2266 
Q 2766 2663 2505 2880 
Q 2244 3097 1772 3097 
Q 1472 3097 1187 3025 
Q 903 2953 641 2809 
L 641 3341 
Q 956 3463 1253 3523 
Q 1550 3584 1831 3584 
Q 2591 3584 2966 3190 
Q 3341 2797 3341 1997 
z
" transform="scale(0.015625)"/>
       <path id="DejaVuSans-74" d="M 1172 4494 
L 1172 3500 
L 2356 3500 
L 2356 3053 
L 1172 3053 
L 1172 1153 
Q 1172 725 1289 603 
Q 1406 481 1766 481 
L 2356 481 
L 2356 0 
L 1766 0 
Q 1100 0 847 248 
Q 594 497 594 1153 
L 594 3053 
L 172 3053 
L 172 3500 
L 594 3500 
L 594 4494 
L 1172 4494 
z
" transform="scale(0.015625)"/>
       <path id="DejaVuSans-65" d="M 3597 1894 
L 3597 1613 
L 953 1613 
Q 991 1019 1311 708 
Q 1631 397 2203 397 
Q 2534 397 2845 478 
Q 3156 559 3463 722 
L 3463 178 
Q 3153 47 2828 -22 
Q 2503 -91 2169 -91 
Q 1331 -91 842 396 
Q 353 884 353 1716 
Q 353 2575 817 3079 
Q 1281 3584 2069 3584 
Q 2775 3584 3186 3129 
Q 3597 2675 3597 1894 
z
M 3022 2063 
Q 3016 2534 2758 2815 
Q 2500 3097 2075 3097 
Q 1594 3097 1305 2825 
Q 1016 2553 972 2059 
L 3022 2063 
z
" transform="scale(0.015625)"/>
      </defs>
      <use xlink:href="#DejaVuSans-44"/>
      <use xlink:href="#DejaVuSans-61" transform="translate(77.001953 0)"/>
      <use xlink:href="#DejaVuSans-74" transform="translate(138.28125 0)"/>
      <use xlink:href="#DejaVuSans-65" transform="translate(177.490234 0)"/>
     </g>
    </g>
   </g>
   <g id="matplotlib.axis_2">
    <g id="ytick_1">
     <g id="line2d_11">
      <defs>
       <path id="m80aa9019b5" d="M 0 0 
L -3.5 0 
" style="stroke: #000000; stroke-width: 0.8"/>
      </defs>
      <g>
       <use xlink:href="#m80aa9019b5" x="57.17" y="236.090864" style="stroke: #000000; stroke-width: 0.8"/>
      </g>
     </g>
     <g id="text_12">
      <!-- 2200 -->
      <g transform="translate(24.72 239.890083) scale(0.1 -0.1)">
       <use xlink:href="#DejaVuSans-32"/>
       <use xlink:href="#DejaVuSans-32" transform="translate(63.623047 0)"/>
       <use xlink:href="#DejaVuSans-30" transform="translate(127.246094 0)"/>
       <use xlink:href="#DejaVuSans-30" transform="translate(190.869141 0)"/>
      </g>
     </g>
    </g>
    <g id="ytick_2">
     <g id="line2d_12">
      <g>
       <use xlink:href="#m80aa9019b5" x="57.17" y="207.231759" style="stroke: #000000; stroke-width: 0.8"/>
      </g>
     </g>
     <g id="text_13">
      <!-- 2400 -->
      <g transform="translate(24.72 211.030978) scale(0.1 -0.1)">
       <defs>
        <path id="DejaVuSans-34" d="M 2419 4116 
L 825 1625 
L 2419 1625 
L 2419 4116 
z
M 2253 4666 
L 3047 4666 
L 3047 1625 
L 3713 1625 
L 3713 1100 
L 3047 1100 
L 3047 0 
L 2419 0 
L 2419 1100 
L 313 1100 
L 313 1709 
L 2253 4666 
z
" transform="scale(0.015625)"/>
       </defs>
       <use xlink:href="#DejaVuSans-32"/>
       <use xlink:href="#DejaVuSans-34" transform="translate(63.623047 0)"/>
       <use xlink:href="#DejaVuSans-30" transform="translate(127.246094 0)"/>
       <use xlink:href="#DejaVuSans-30" transform="translate(190.869141 0)"/>
      </g>
     </g>
    </g>
    <g id="ytick_3">
     <g id="line2d_13">
      <g>
       <use xlink:href="#m80aa9019b5" x="57.17" y="178.372654" style="stroke: #000000; stroke-width: 0.8"/>
      </g>
     </g>
     <g id="text_14">
      <!-- 2600 -->
      <g transform="translate(24.72 182.171873) scale(0.1 -0.1)">
       <defs>
        <path id="DejaVuSans-36" d="M 2113 2584 
Q 1688 2584 1439 2293 
Q 1191 2003 1191 1497 
Q 1191 994 1439 701 
Q 1688 409 2113 409 
Q 2538 409 2786 701 
Q 3034 994 3034 1497 
Q 3034 2003 2786 2293 
Q 2538 2584 2113 2584 
z
M 3366 4563 
L 3366 3988 
Q 3128 4100 2886 4159 
Q 2644 4219 2406 4219 
Q 1781 4219 1451 3797 
Q 1122 3375 1075 2522 
Q 1259 2794 1537 2939 
Q 1816 3084 2150 3084 
Q 2853 3084 3261 2657 
Q 3669 2231 3669 1497 
Q 3669 778 3244 343 
Q 2819 -91 2113 -91 
Q 1303 -91 875 529 
Q 447 1150 447 2328 
Q 447 3434 972 4092 
Q 1497 4750 2381 4750 
Q 2619 4750 2861 4703 
Q 3103 4656 3366 4563 
z
" transform="scale(0.015625)"/>
       </defs>
       <use xlink:href="#DejaVuSans-32"/>
       <use xlink:href="#DejaVuSans-36" transform="translate(63.623047 0)"/>
       <use xlink:href="#DejaVuSans-30" transform="translate(127.246094 0)"/>
       <use xlink:href="#DejaVuSans-30" transform="translate(190.869141 0)"/>
      </g>
     </g>
    </g>
    <g id="ytick_4">
     <g id="line2d_14">
      <g>
       <use xlink:href="#m80aa9019b5" x="57.17" y="149.513549" style="stroke: #000000; stroke-width: 0.8"/>
      </g>
     </g>
     <g id="text_15">
      <!-- 2800 -->
      <g transform="translate(24.72 153.312768) scale(0.1 -0.1)">
       <use xlink:href="#DejaVuSans-32"/>
       <use xlink:href="#DejaVuSans-38" transform="translate(63.623047 0)"/>
       <use xlink:href="#DejaVuSans-30" transform="translate(127.246094 0)"/>
       <use xlink:href="#DejaVuSans-30" transform="translate(190.869141 0)"/>
      </g>
     </g>
    </g>
    <g id="ytick_5">
     <g id="line2d_15">
      <g>
       <use xlink:href="#m80aa9019b5" x="57.17" y="120.654444" style="stroke: #000000; stroke-width: 0.8"/>
      </g>
     </g>
     <g id="text_16">
      <!-- 3000 -->
      <g transform="translate(24.72 124.453663) scale(0.1 -0.1)">
       <defs>
        <path id="DejaVuSans-33" d="M 2597 2516 
Q 3050 2419 3304 2112 
Q 3559 1806 3559 1356 
Q 3559 666 3084 287 
Q 2609 -91 1734 -91 
Q 1441 -91 1130 -33 
Q 819 25 488 141 
L 488 750 
Q 750 597 1062 519 
Q 1375 441 1716 441 
Q 2309 441 2620 675 
Q 2931 909 2931 1356 
Q 2931 1769 2642 2001 
Q 2353 2234 1838 2234 
L 1294 2234 
L 1294 2753 
L 1863 2753 
Q 2328 2753 2575 2939 
Q 2822 3125 2822 3475 
Q 2822 3834 2567 4026 
Q 2313 4219 1838 4219 
Q 1578 4219 1281 4162 
Q 984 4106 628 3988 
L 628 4550 
Q 988 4650 1302 4700 
Q 1616 4750 1894 4750 
Q 2613 4750 3031 4423 
Q 3450 4097 3450 3541 
Q 3450 3153 3228 2886 
Q 3006 2619 2597 2516 
z
" transform="scale(0.015625)"/>
       </defs>
       <use xlink:href="#DejaVuSans-33"/>
       <use xlink:href="#DejaVuSans-30" transform="translate(63.623047 0)"/>
       <use xlink:href="#DejaVuSans-30" transform="translate(127.246094 0)"/>
       <use xlink:href="#DejaVuSans-30" transform="translate(190.869141 0)"/>
      </g>
     </g>
    </g>
    <g id="ytick_6">
     <g id="line2d_16">
      <g>
       <use xlink:href="#m80aa9019b5" x="57.17" y="91.795339" style="stroke: #000000; stroke-width: 0.8"/>
      </g>
     </g>
     <g id="text_17">
      <!-- 3200 -->
      <g transform="translate(24.72 95.594557) scale(0.1 -0.1)">
       <use xlink:href="#DejaVuSans-33"/>
       <use xlink:href="#DejaVuSans-32" transform="translate(63.623047 0)"/>
       <use xlink:href="#DejaVuSans-30" transform="translate(127.246094 0)"/>
       <use xlink:href="#DejaVuSans-30" transform="translate(190.869141 0)"/>
      </g>
     </g>
    </g>
    <g id="ytick_7">
     <g id="line2d_17">
      <g>
       <use xlink:href="#m80aa9019b5" x="57.17" y="62.936234" style="stroke: #000000; stroke-width: 0.8"/>
      </g>
     </g>
     <g id="text_18">
      <!-- 3400 -->
      <g transform="translate(24.72 66.735452) scale(0.1 -0.1)">
       <use xlink:href="#DejaVuSans-33"/>
       <use xlink:href="#DejaVuSans-34" transform="translate(63.623047 0)"/>
       <use xlink:href="#DejaVuSans-30" transform="translate(127.246094 0)"/>
       <use xlink:href="#DejaVuSans-30" transform="translate(190.869141 0)"/>
      </g>
     </g>
    </g>
    <g id="ytick_8">
     <g id="line2d_18">
      <g>
       <use xlink:href="#m80aa9019b5" x="57.17" y="34.077129" style="stroke: #000000; stroke-width: 0.8"/>
      </g>
     </g>
     <g id="text_19">
      <!-- 3600 -->
      <g transform="translate(24.72 37.876347) scale(0.1 -0.1)">
       <use xlink:href="#DejaVuSans-33"/>
       <use xlink:href="#DejaVuSans-36" transform="translate(63.623047 0)"/>
       <use xlink:href="#DejaVuSans-30" transform="translate(127.246094 0)"/>
       <use xlink:href="#DejaVuSans-30" transform="translate(190.869141 0)"/>
      </g>
     </g>
    </g>
    <g id="text_20">
     <!-- Stock Price -->
     <g transform="translate(18.640313 164.085) rotate(-90) scale(0.1 -0.1)">
      <defs>
       <path id="DejaVuSans-53" d="M 3425 4513 
L 3425 3897 
Q 3066 4069 2747 4153 
Q 2428 4238 2131 4238 
Q 1616 4238 1336 4038 
Q 1056 3838 1056 3469 
Q 1056 3159 1242 3001 
Q 1428 2844 1947 2747 
L 2328 2669 
Q 3034 2534 3370 2195 
Q 3706 1856 3706 1288 
Q 3706 609 3251 259 
Q 2797 -91 1919 -91 
Q 1588 -91 1214 -16 
Q 841 59 441 206 
L 441 856 
Q 825 641 1194 531 
Q 1563 422 1919 422 
Q 2459 422 2753 634 
Q 3047 847 3047 1241 
Q 3047 1584 2836 1778 
Q 2625 1972 2144 2069 
L 1759 2144 
Q 1053 2284 737 2584 
Q 422 2884 422 3419 
Q 422 4038 858 4394 
Q 1294 4750 2059 4750 
Q 2388 4750 2728 4690 
Q 3069 4631 3425 4513 
z
" transform="scale(0.015625)"/>
       <path id="DejaVuSans-6f" d="M 1959 3097 
Q 1497 3097 1228 2736 
Q 959 2375 959 1747 
Q 959 1119 1226 758 
Q 1494 397 1959 397 
Q 2419 397 2687 759 
Q 2956 1122 2956 1747 
Q 2956 2369 2687 2733 
Q 2419 3097 1959 3097 
z
M 1959 3584 
Q 2709 3584 3137 3096 
Q 3566 2609 3566 1747 
Q 3566 888 3137 398 
Q 2709 -91 1959 -91 
Q 1206 -91 779 398 
Q 353 888 353 1747 
Q 353 2609 779 3096 
Q 1206 3584 1959 3584 
z
" transform="scale(0.015625)"/>
       <path id="DejaVuSans-63" d="M 3122 3366 
L 3122 2828 
Q 2878 2963 2633 3030 
Q 2388 3097 2138 3097 
Q 1578 3097 1268 2742 
Q 959 2388 959 1747 
Q 959 1106 1268 751 
Q 1578 397 2138 397 
Q 2388 397 2633 464 
Q 2878 531 3122 666 
L 3122 134 
Q 2881 22 2623 -34 
Q 2366 -91 2075 -91 
Q 1284 -91 818 406 
Q 353 903 353 1747 
Q 353 2603 823 3093 
Q 1294 3584 2113 3584 
Q 2378 3584 2631 3529 
Q 2884 3475 3122 3366 
z
" transform="scale(0.015625)"/>
       <path id="DejaVuSans-6b" d="M 581 4863 
L 1159 4863 
L 1159 1991 
L 2875 3500 
L 3609 3500 
L 1753 1863 
L 3688 0 
L 2938 0 
L 1159 1709 
L 1159 0 
L 581 0 
L 581 4863 
z
" transform="scale(0.015625)"/>
       <path id="DejaVuSans-20" transform="scale(0.015625)"/>
       <path id="DejaVuSans-50" d="M 1259 4147 
L 1259 2394 
L 2053 2394 
Q 2494 2394 2734 2622 
Q 2975 2850 2975 3272 
Q 2975 3691 2734 3919 
Q 2494 4147 2053 4147 
L 1259 4147 
z
M 628 4666 
L 2053 4666 
Q 2838 4666 3239 4311 
Q 3641 3956 3641 3272 
Q 3641 2581 3239 2228 
Q 2838 1875 2053 1875 
L 1259 1875 
L 1259 0 
L 628 0 
L 628 4666 
z
" transform="scale(0.015625)"/>
       <path id="DejaVuSans-72" d="M 2631 2963 
Q 2534 3019 2420 3045 
Q 2306 3072 2169 3072 
Q 1681 3072 1420 2755 
Q 1159 2438 1159 1844 
L 1159 0 
L 581 0 
L 581 3500 
L 1159 3500 
L 1159 2956 
Q 1341 3275 1631 3429 
Q 1922 3584 2338 3584 
Q 2397 3584 2469 3576 
Q 2541 3569 2628 3553 
L 2631 2963 
z
" transform="scale(0.015625)"/>
       <path id="DejaVuSans-69" d="M 603 3500 
L 1178 3500 
L 1178 0 
L 603 0 
L 603 3500 
z
M 603 4863 
L 1178 4863 
L 1178 4134 
L 603 4134 
L 603 4863 
z
" transform="scale(0.015625)"/>
      </defs>
      <use xlink:href="#DejaVuSans-53"/>
      <use xlink:href="#DejaVuSans-74" transform="translate(63.476562 0)"/>
      <use xlink:href="#DejaVuSans-6f" transform="translate(102.685547 0)"/>
      <use xlink:href="#DejaVuSans-63" transform="translate(163.867188 0)"/>
      <use xlink:href="#DejaVuSans-6b" transform="translate(218.847656 0)"/>
      <use xlink:href="#DejaVuSans-20" transform="translate(276.757812 0)"/>
      <use xlink:href="#DejaVuSans-50" transform="translate(308.544922 0)"/>
      <use xlink:href="#DejaVuSans-72" transform="translate(367.097656 0)"/>
      <use xlink:href="#DejaVuSans-69" transform="translate(408.210938 0)"/>
      <use xlink:href="#DejaVuSans-63" transform="translate(435.994141 0)"/>
      <use xlink:href="#DejaVuSans-65" transform="translate(490.974609 0)"/>
     </g>
    </g>
   </g>
   <g id="line2d_19">
    <path d="M 80.262273 187.356495 
L 80.672073 185.288729 
L 81.081874 185.684097 
L 82.311277 186.34787 
L 83.130878 184.831323 
L 83.540679 185.453245 
L 83.95048 185.130025 
L 86.409284 183.84144 
L 86.819085 181.949746 
L 88.048487 183.425886 
L 88.458288 182.827074 
L 88.868089 184.555731 
L 89.277889 184.086771 
L 89.68769 181.104158 
L 90.917092 182.293152 
L 91.326893 181.942524 
L 91.736694 181.350898 
L 92.146495 181.280195 
L 92.556295 180.127275 
L 93.785698 179.652572 
L 94.195499 179.723275 
L 94.605299 179.183612 
L 95.0151 180.591902 
L 95.424901 180.926678 
L 96.654303 180.560161 
L 97.064104 181.421601 
L 97.473905 183.477813 
L 97.883705 180.444753 
L 98.293506 181.42449 
L 99.522908 180.949787 
L 99.932709 178.512616 
L 100.34251 178.793986 
L 101.162111 178.02347 
L 102.391514 178.167766 
L 102.801314 174.470897 
L 103.211115 174.61086 
L 103.620916 171.507062 
L 104.030717 172.280501 
L 105.260119 172.681647 
L 105.66992 174.105825 
L 106.07972 174.149121 
L 106.489521 173.036608 
L 106.899322 170.941434 
L 108.128724 169.716367 
L 108.538525 169.121852 
L 108.948326 169.303666 
L 109.358127 170.867842 
L 109.767927 167.433602 
L 110.99733 165.362982 
L 111.40713 166.616902 
L 111.816931 166.937234 
L 112.226732 166.169572 
L 112.636533 166.347052 
L 114.275736 166.756864 
L 114.685536 166.450941 
L 115.095337 165.741018 
L 115.505138 167.751045 
L 117.144341 164.547691 
L 117.554142 162.058593 
L 117.963942 160.481453 
L 118.373743 157.716764 
L 119.603146 157.058768 
L 120.012946 156.542178 
L 120.422747 156.983731 
L 121.242349 151.499057 
L 122.881552 152.916049 
L 123.291352 149.144144 
L 123.701153 149.797807 
L 124.110954 148.027298 
L 125.750157 143.867282 
L 126.159958 144.096689 
L 126.569758 143.849949 
L 126.979559 138.998717 
L 128.208961 141.789405 
L 128.618762 146.27701 
L 129.028563 146.077864 
L 129.438364 146.341936 
L 129.848164 154.978037 
L 131.077567 171.310839 
L 131.487368 164.644393 
L 131.897168 166.589494 
L 132.306969 181.114269 
L 132.71677 175.551669 
L 133.946172 170.292105 
L 134.355973 169.290702 
L 135.175574 159.441088 
L 135.585375 159.293904 
L 137.224578 161.596855 
L 137.634379 163.751177 
L 138.04418 163.371697 
L 138.45398 157.117916 
L 139.683383 152.457163 
L 140.912785 167.165232 
L 141.322586 165.205687 
L 142.961789 159.885494 
L 143.371589 160.075974 
L 143.78139 158.319909 
L 144.191191 151.451428 
L 145.420593 151.963684 
L 146.240195 156.803362 
L 146.649996 157.113583 
L 147.059796 156.43829 
L 148.289199 162.078814 
L 148.698999 161.498744 
L 149.1088 162.221666 
L 149.928402 180.066682 
L 151.157804 169.924144 
L 151.567605 176.551628 
L 151.977405 177.651176 
L 152.387206 172.475279 
L 154.026409 180.987306 
L 154.846011 171.924095 
L 155.255811 169.30511 
L 155.665612 177.727657 
L 156.895015 176.473738 
L 157.304815 170.166551 
L 157.714616 172.284834 
L 158.124417 169.139185 
L 158.534218 170.248809 
L 159.76362 167.140678 
L 160.173421 163.021068 
L 160.583221 162.696403 
L 160.993022 164.934429 
L 161.402823 168.251781 
L 162.632225 168.230116 
L 163.042026 173.385792 
L 163.451827 172.687424 
L 163.861627 168.71352 
L 164.271428 168.284966 
L 165.50083 171.439247 
L 165.910631 170.465252 
L 166.320432 173.225644 
L 166.730233 174.082751 
L 167.140033 169.221443 
L 168.369436 167.892487 
L 168.779237 167.994931 
L 169.598838 160.614194 
L 170.008639 159.943234 
L 171.238041 159.595494 
L 171.647842 162.290925 
L 172.057643 160.70223 
L 172.467443 161.038449 
L 172.877244 162.071593 
L 174.106646 159.179905 
L 174.516447 160.416527 
L 174.926248 159.139498 
L 175.745849 160.865267 
L 177.385052 165.406243 
L 177.794853 160.478564 
L 178.204654 163.182661 
L 178.614455 158.947573 
L 179.843857 157.179953 
L 180.253658 156.901473 
L 180.663458 153.503306 
L 181.073259 153.789008 
L 181.48306 152.539422 
L 182.712462 152.110868 
L 183.122263 151.411021 
L 183.532064 153.030048 
L 183.941865 152.040165 
L 184.351665 152.448533 
L 185.581068 153.301306 
L 185.990868 154.911632 
L 186.400669 154.229117 
L 186.81047 156.762955 
L 187.220271 156.02418 
L 188.449673 161.479967 
L 188.859474 160.615638 
L 189.269274 163.996508 
L 189.679075 161.589633 
L 190.088876 161.292376 
L 191.318278 160.088974 
L 191.728079 162.035519 
L 192.54768 158.660427 
L 192.957481 155.311333 
L 194.596684 150.402397 
L 195.006485 153.262344 
L 195.416286 149.760289 
L 195.826087 149.324513 
L 197.055489 149.740103 
L 197.46529 148.13552 
L 197.87509 147.259636 
L 198.284891 148.865663 
L 198.694692 149.249477 
L 199.924094 148.506369 
L 200.333895 146.569934 
L 200.743696 142.865844 
L 201.153496 144.111133 
L 201.563297 146.797897 
L 202.792699 149.138366 
L 203.2025 147.162969 
L 203.612301 147.585745 
L 204.431902 143.69121 
L 205.661305 142.241069 
L 206.071106 141.079482 
L 206.480906 141.187704 
L 206.890707 141.782183 
L 207.300508 144.71139 
L 208.52991 146.349158 
L 208.939711 143.747505 
L 209.349512 146.862823 
L 209.759312 143.642172 
L 210.169113 142.280031 
L 211.398515 141.281482 
L 211.808316 140.428708 
L 212.218117 140.59319 
L 212.627918 141.291593 
L 213.037718 138.736125 
L 214.267121 135.554401 
L 214.676921 135.441846 
L 215.086722 133.058082 
L 215.496523 134.920959 
L 215.906324 134.864664 
L 217.545527 135.55729 
L 217.955327 136.728951 
L 218.365128 138.251276 
L 218.774929 139.170455 
L 220.004331 138.384052 
L 220.414132 136.831431 
L 220.823933 136.682802 
L 221.233734 134.480851 
L 221.643534 134.365407 
L 222.872937 136.700099 
L 223.282737 134.462074 
L 223.692538 133.936854 
L 224.102339 130.646909 
L 224.51214 130.802759 
L 226.151343 132.838749 
L 226.561143 134.222556 
L 226.970944 133.063859 
L 227.380745 133.066748 
L 228.610147 131.535757 
L 229.019948 131.703162 
L 229.429749 131.403016 
L 229.839549 134.851665 
L 230.24935 137.166171 
L 231.478753 137.330687 
L 231.888553 137.920834 
L 232.298354 151.579871 
L 232.708155 159.84942 
L 233.117956 154.25656 
L 234.347358 156.614326 
L 234.757159 148.082149 
L 235.166959 148.184593 
L 235.57676 154.018451 
L 235.986561 154.162746 
L 237.215963 155.879884 
L 237.625764 158.071725 
L 238.035565 170.277661 
L 238.445365 163.139366 
L 238.855166 169.903958 
L 240.084568 172.420464 
L 240.494369 166.449532 
L 241.313971 158.117874 
L 241.723771 160.615638 
L 242.953174 158.415131 
L 243.362975 155.941922 
L 243.772775 147.509299 
L 244.182576 148.527999 
L 244.592377 152.253719 
L 245.821779 160.159677 
L 246.23158 160.742636 
L 246.641381 163.715103 
L 247.051181 159.585384 
L 247.460982 158.7095 
L 248.690384 165.280724 
L 249.100185 172.32813 
L 249.509986 171.167988 
L 250.329587 173.674383 
L 251.55899 167.774155 
L 251.96879 166.515902 
L 252.378591 157.624395 
L 252.788392 158.488723 
L 253.198193 155.260851 
L 254.427595 150.903098 
L 254.837396 163.934435 
L 255.656997 164.527505 
L 256.066798 173.599347 
L 257.2962 172.929831 
L 257.706001 173.06546 
L 258.115802 171.003472 
L 258.525603 171.079952 
L 258.935403 178.379876 
L 260.164806 186.173279 
L 260.574606 186.141538 
L 261.394208 197.503366 
L 261.804009 204.83355 
L 263.033411 214.287796 
L 263.853012 197.462959 
L 264.262813 194.413976 
L 264.672614 194.859862 
L 265.902016 191.813768 
L 266.721618 191.354918 
L 267.131418 200.321462 
L 267.541219 188.193416 
L 268.770622 185.63217 
L 269.180422 182.065189 
L 270.000024 178.857502 
L 270.409825 178.912318 
L 271.639227 180.881938 
L 272.049028 176.886403 
L 272.458828 176.049482 
L 272.868629 173.183792 
L 273.27843 168.169523 
L 274.917633 173.625345 
L 275.327434 172.788424 
L 275.737234 172.264613 
L 276.147035 169.028074 
L 277.376437 172.045281 
L 277.786238 172.600833 
L 278.196039 166.677495 
L 278.60584 163.351476 
L 279.01564 163.000847 
L 280.245043 160.354455 
L 280.654844 158.503167 
L 281.064644 159.381904 
L 281.474445 163.070106 
L 281.884246 162.80607 
L 283.113648 162.528998 
L 283.523449 157.488765 
L 283.93325 156.291105 
L 284.34305 157.34447 
L 284.752851 153.034346 
L 286.392054 152.434089 
L 286.801855 151.721277 
L 287.211656 153.138269 
L 287.621456 150.571246 
L 288.850859 150.074843 
L 289.67046 150.613098 
L 290.080261 151.751574 
L 290.490062 148.981107 
L 292.129265 151.007022 
L 292.948866 156.882731 
L 293.358667 157.728283 
L 294.588069 151.923277 
L 294.99787 150.737172 
L 295.407671 147.937853 
L 295.817472 148.289926 
L 296.227272 146.269788 
L 297.456675 144.760463 
L 297.866475 144.813834 
L 298.276276 146.017271 
L 298.686077 141.594627 
L 299.095878 149.411105 
L 300.32528 149.750178 
L 300.735081 146.849859 
L 301.144881 148.738665 
L 301.554682 147.285634 
L 301.964483 144.549797 
L 303.193885 139.818341 
L 303.603686 139.811119 
L 304.423287 138.057943 
L 304.833088 136.131583 
L 306.062491 135.694364 
L 306.472291 138.229646 
L 306.882092 136.785246 
L 307.291893 136.769358 
L 307.701694 134.014779 
L 308.931096 134.278816 
L 309.340897 134.065261 
L 309.750697 135.01907 
L 310.160498 134.358186 
L 311.799701 133.933965 
L 312.209502 130.224133 
L 312.619303 131.151943 
L 313.029103 131.307794 
L 313.438904 129.329508 
L 314.668306 128.874956 
L 315.078107 128.470921 
L 315.487908 131.659866 
L 315.897709 132.555936 
L 316.307509 128.498364 
L 317.536912 130.398725 
L 317.946713 137.385503 
L 318.356513 138.053609 
L 318.766314 139.308973 
L 319.176115 137.767907 
L 320.405517 147.800744 
L 321.634919 138.500905 
L 322.04472 140.923632 
L 323.274122 143.708543 
L 323.683923 140.226673 
L 324.093724 141.394037 
L 324.503525 146.304418 
L 324.913325 145.753199 
L 326.552528 149.168698 
L 326.962329 151.963684 
L 327.37213 151.120986 
L 327.781931 156.431068 
L 329.011333 157.529172 
L 329.421134 149.0417 
L 330.650536 138.930902 
L 331.879938 136.998801 
L 332.289739 137.144541 
L 332.69954 137.992981 
L 333.109341 136.290322 
L 333.519141 136.962727 
L 334.748544 136.57458 
L 335.158344 132.522751 
L 335.568145 131.265942 
L 335.977946 127.266075 
L 336.387747 127.80285 
L 337.617149 128.54018 
L 338.02695 132.576157 
L 338.43675 133.0956 
L 338.846551 131.488163 
L 339.256352 129.058214 
L 340.895555 124.548979 
L 341.305356 121.257589 
L 342.124957 122.038251 
L 343.35436 124.124758 
L 343.76416 123.593761 
L 344.173961 121.654402 
L 344.583762 120.667443 
L 344.993563 118.667492 
L 346.222965 118.591011 
L 346.632766 120.071484 
L 347.042566 122.902579 
L 347.452367 121.360033 
L 347.862168 124.029501 
L 349.09157 122.814544 
L 349.501371 119.865151 
L 349.911172 117.832015 
L 350.320972 120.12489 
L 350.730773 116.922946 
L 351.960175 117.628571 
L 352.369976 118.752639 
L 353.189578 127.355519 
L 353.599378 130.459318 
L 354.828781 143.057768 
L 355.238582 137.714501 
L 355.648382 137.395614 
L 356.058183 129.587767 
L 356.467984 132.392899 
L 357.697386 137.580316 
L 358.107187 131.286128 
L 358.516988 143.655136 
L 358.926788 142.645068 
L 359.336589 136.717431 
L 360.565991 131.671421 
L 360.975792 135.010404 
L 361.385593 131.558866 
L 361.795394 131.772421 
L 362.205194 142.715771 
L 363.434597 138.203682 
L 363.844397 139.534083 
L 364.254198 136.824209 
L 364.663999 131.537201 
L 365.0738 131.265942 
L 366.713003 134.17926 
L 367.532604 124.117536 
L 367.942405 123.726501 
L 369.171807 123.766908 
L 369.581608 123.62839 
L 369.991409 120.520259 
L 370.40121 119.273526 
L 370.81101 119.588115 
L 372.040413 120.948812 
L 372.450213 119.831966 
L 372.860014 119.683338 
L 373.269815 119.674672 
L 373.679616 121.798698 
L 374.909018 121.840549 
L 375.318819 125.4739 
L 375.728619 122.837618 
L 376.13842 123.883761 
L 376.548221 126.16797 
L 377.777623 124.010759 
L 378.187424 129.276101 
L 378.597225 136.871802 
L 379.007025 133.550152 
L 379.416826 127.579185 
L 380.646229 129.486767 
L 381.056029 136.085399 
L 381.46583 132.284677 
L 381.875631 129.582025 
L 382.285432 124.944347 
L 383.514834 125.538861 
L 383.924635 121.27781 
L 384.334435 122.142139 
L 384.744236 120.950257 
L 385.154037 122.645729 
L 386.383439 119.684782 
L 386.79324 121.23307 
L 387.203041 120.002225 
L 387.612841 119.169637 
L 388.022642 117.400573 
L 389.252044 114.966325 
L 389.661845 115.331397 
L 390.071646 113.905739 
L 390.481447 115.234695 
L 390.891247 110.999643 
L 392.12065 109.36043 
L 392.530451 109.887095 
L 392.940251 109.575429 
L 393.759853 107.223405 
L 394.989255 108.099289 
L 395.399056 107.40233 
L 396.218657 106.711184 
L 396.628458 103.27261 
L 397.85786 103.046057 
L 398.267661 103.313017 
L 398.677462 105.004157 
L 399.087263 105.714079 
L 399.497063 104.740085 
L 401.136266 100.378034 
L 401.546067 98.486339 
L 402.365669 100.311664 
L 403.595071 104.223495 
L 404.004872 107.206108 
L 404.414673 104.383679 
L 404.824473 103.70983 
L 405.234274 99.600296 
L 406.873477 101.532398 
L 407.283278 100.217885 
L 407.693079 96.330537 
L 408.102879 96.297352 
L 409.332282 93.029073 
L 409.742082 92.874666 
L 410.151883 93.073813 
L 410.971485 88.733392 
L 412.200887 88.330802 
L 412.610688 88.421726 
L 413.430289 86.036517 
L 413.84009 86.020629 
L 415.069492 88.723281 
L 415.479293 87.353918 
L 416.298894 83.447828 
L 416.708695 86.766626 
L 417.938098 85.117338 
L 418.347898 86.430441 
L 418.757699 84.140454 
L 419.1675 81.01647 
L 419.577301 82.365612 
L 420.806703 79.078591 
L 421.216504 79.79718 
L 421.626304 78.911186 
L 422.036105 74.94017 
L 422.445906 73.091736 
L 424.085109 74.365877 
L 424.49491 74.227359 
L 424.90471 73.680473 
L 425.314511 78.019449 
L 426.543913 85.499742 
L 426.953714 80.794249 
L 427.363515 81.204061 
L 427.773316 79.723588 
L 428.183116 88.112914 
L 429.412519 84.736413 
L 430.23212 72.360183 
L 430.641921 70.759933 
L 431.051722 73.367363 
L 432.281124 69.84942 
L 432.690925 69.03272 
L 433.100726 65.901514 
L 433.510526 66.696584 
L 433.920327 65.79907 
L 435.55953 67.223248 
L 435.969331 64.934741 
L 436.379132 66.799028 
L 438.018335 88.059543 
L 438.428135 102.15432 
L 438.837936 103.859903 
L 439.247737 123.719279 
L 439.657538 127.260297 
L 440.88694 107.634661 
L 441.296741 120.168151 
L 441.706542 101.878693 
L 442.116342 117.200017 
L 442.526143 124.641312 
L 443.755545 157.224693 
L 444.165346 137.648131 
L 444.575147 157.972169 
L 444.984948 195.595783 
L 445.394748 162.352962 
L 446.624151 209.233155 
L 447.033951 188.590229 
L 447.443752 207.505906 
L 447.853553 205.876839 
L 448.263354 220.951389 
L 449.492756 230.694226 
L 449.902557 200.402241 
L 450.312357 196.328781 
L 450.722158 174.033678 
L 451.131959 186.818275 
L 452.361361 174.527192 
L 452.771162 180.596235 
L 453.180963 197.058924 
L 453.590763 188.920671 
L 454.000564 194.439975 
L 455.229967 169.183925 
L 455.639767 169.800069 
L 456.049568 156.731214 
L 456.459369 150.982467 
L 458.098572 155.050185 
L 458.508373 142.867288 
L 458.918173 151.914611 
L 459.327974 149.578475 
L 459.737775 138.754866 
L 460.967177 146.171677 
L 461.376978 158.667648 
L 461.786779 149.613104 
L 462.196579 149.830992 
L 462.60638 144.212133 
L 463.835782 138.189239 
L 464.245583 140.366671 
L 464.655384 129.382879 
L 465.065185 133.290413 
L 465.474985 145.082239 
L 466.704388 143.34636 
L 467.114189 139.637972 
L 467.523989 142.526771 
L 467.93379 137.798204 
L 468.343591 130.783983 
L 469.572993 130.727723 
L 470.392595 146.627638 
L 470.802395 141.938034 
L 471.212196 140.321931 
L 472.441598 127.305037 
L 472.851399 131.773865 
L 473.2612 124.750978 
L 473.671001 128.084219 
L 474.080801 127.082817 
L 475.720004 121.841993 
L 476.129805 115.441063 
L 476.539606 116.364541 
L 476.949407 114.260701 
L 478.178809 112.612857 
L 478.58861 108.99247 
L 478.998411 102.924836 
L 479.408211 104.442827 
L 479.818012 92.671222 
L 481.047414 87.121622 
L 481.457215 90.759307 
L 481.867016 93.218108 
L 482.276817 120.351409 
L 482.686617 114.693587 
L 483.91602 111.045792 
L 484.32582 102.655021 
L 484.735621 104.278346 
L 485.145422 104.011385 
L 485.555223 106.551001 
L 486.784625 103.647758 
L 487.194426 101.709879 
L 487.604226 113.392039 
L 488.014027 108.568249 
L 488.423828 119.348562 
L 489.65323 112.972151 
L 490.063031 106.18304 
L 490.882632 101.894581 
L 492.521836 94.721656 
L 492.931636 99.685408 
L 493.341437 96.132871 
L 493.751238 98.714302 
L 494.161039 93.953994 
L 495.390441 98.256897 
L 495.800242 92.153189 
L 496.210042 87.962841 
L 496.619843 89.548648 
L 498.259046 84.315046 
L 498.668847 83.527198 
L 499.078648 80.82599 
L 499.488448 86.649773 
L 499.898249 89.540017 
L 501.127651 86.108665 
L 501.537452 89.134538 
L 501.947253 83.362717 
L 502.357054 85.126004 
L 502.766854 81.533024 
L 503.996257 78.143524 
L 504.406058 76.426421 
L 505.225659 70.272231 
L 505.63546 69.966307 
L 506.864862 68.64024 
L 507.274663 72.504478 
L 507.684464 65.771627 
L 508.094264 66.770176 
L 508.504065 66.853843 
L 509.733467 65.534998 
L 510.143268 64.41093 
L 510.553069 66.565252 
L 511.37267 63.346046 
L 513.011873 56.642046 
L 513.421674 51.57585 
L 513.831475 50.73604 
L 514.241276 47.350873 
L 515.470678 48.461941 
L 515.880479 44.66122 
L 516.29028 36.841818 
L 516.70008 54.991314 
L 517.109881 59.046032 
L 518.749084 72.771404 
L 519.158885 63.086307 
L 519.568686 71.710853 
L 519.978486 71.454003 
L 521.617689 62.763086 
L 522.02749 65.029963 
L 522.437291 69.139497 
L 522.847092 74.556357 
L 524.076494 80.098735 
L 524.486295 75.119095 
L 524.896095 86.467959 
L 525.305896 85.072598 
L 525.715697 77.588007 
L 526.945099 69.920123 
L 527.3549 72.247628 
L 527.764701 68.275168 
L 528.174501 65.706701 
L 528.584302 70.379008 
L 529.813705 61.695278 
L 530.223505 68.568092 
L 530.633306 60.131137 
L 531.452908 51.805292 
L 532.68231 43.568892 
L 533.501911 50.141561 
L 533.911712 50.910632 
L 534.321513 50.842817 
L 535.550915 59.051809 
L 535.960716 56.714194 
L 536.370517 57.805076 
L 536.780317 55.217867 
L 537.190118 53.500765 
L 538.41952 62.796271 
L 538.829321 64.281078 
L 539.239122 81.546023 
L 539.648923 75.906943 
L 540.058723 81.700429 
L 541.288126 75.888201 
L 542.107727 56.668045 
L 542.107727 56.668045 
" clip-path="url(#p491e5bcf84)" style="fill: none; stroke: #0000ff; stroke-width: 1.5; stroke-linecap: square"/>
   </g>
   <g id="line2d_20">
    <path d="M 80.262273 191.894159 
L 81.081874 189.590574 
L 82.311277 188.769964 
L 82.721077 187.891931 
L 83.130878 187.795969 
L 83.540679 187.219597 
L 83.95048 187.341981 
L 85.999483 186.709138 
L 86.409284 186.256699 
L 86.819085 186.378519 
L 88.048487 186.166409 
L 88.458288 185.661093 
L 88.868089 185.446622 
L 89.277889 186.706284 
L 89.68769 186.556246 
L 91.326893 185.447115 
L 92.556295 186.15658 
L 93.785698 185.109205 
L 94.195499 184.606284 
L 94.605299 185.316841 
L 95.0151 185.065345 
L 95.424901 185.330932 
L 96.654303 185.216792 
L 97.064104 184.57243 
L 97.473905 185.003801 
L 97.883705 185.596695 
L 98.293506 184.820332 
L 99.522908 184.63267 
L 99.932709 183.756258 
L 100.34251 183.363814 
L 101.162111 181.716675 
L 102.391514 178.60569 
L 102.801314 181.546979 
L 103.211115 181.044094 
L 104.030717 181.924064 
L 105.260119 181.155204 
L 105.66992 180.518345 
L 106.07972 180.092821 
L 106.489521 179.448388 
L 108.128724 177.991236 
L 108.538525 177.111512 
L 108.948326 176.860545 
L 109.358127 176.186943 
L 109.767927 176.702757 
L 110.99733 179.366447 
L 111.40713 175.563436 
L 111.816931 174.460505 
L 112.636533 172.906122 
L 114.275736 171.43361 
L 114.685536 170.236831 
L 115.095337 170.070271 
L 115.505138 169.442466 
L 117.144341 169.686704 
L 117.554142 171.18754 
L 117.963942 170.903141 
L 119.603146 168.955257 
L 120.012946 168.181747 
L 120.422747 167.861697 
L 120.832548 167.805261 
L 121.242349 167.082269 
L 122.881552 165.606199 
L 123.291352 166.366815 
L 123.701153 164.48125 
L 124.110954 163.384907 
L 125.340356 162.259607 
L 126.159958 159.299153 
L 126.569758 159.176488 
L 126.979559 157.953076 
L 128.208961 155.56843 
L 128.618762 155.221747 
L 129.028563 156.645433 
L 129.438364 156.761968 
L 129.848164 156.60034 
L 131.077567 159.577739 
L 131.487368 168.019415 
L 131.897168 172.4199 
L 132.306969 172.551548 
L 132.71677 179.356618 
L 133.946172 182.638637 
L 134.355973 179.576479 
L 134.765774 177.834117 
L 135.175574 176.816545 
L 135.585375 173.54041 
L 137.224578 171.184405 
L 137.634379 170.236585 
L 138.04418 170.318913 
L 138.45398 169.719361 
L 139.683383 167.048555 
L 140.093183 164.577459 
L 140.502984 164.801371 
L 140.912785 166.299212 
L 141.322586 169.11604 
L 142.551988 169.230391 
L 143.371589 166.98916 
L 143.78139 166.65516 
L 145.420593 162.807443 
L 145.830394 160.53877 
L 146.240195 160.559942 
L 146.649996 160.270048 
L 147.059796 161.116551 
L 148.289199 164.544204 
L 148.698999 163.975089 
L 149.1088 164.334947 
L 149.518601 165.160172 
L 149.928402 170.105359 
L 151.157804 174.541953 
L 151.567605 173.849644 
L 152.387206 177.829538 
L 154.026409 176.923956 
L 154.43621 179.222292 
L 154.846011 179.015643 
L 155.255811 178.414681 
L 155.665612 176.472504 
L 156.895015 178.188304 
L 157.304815 177.549437 
L 158.534218 173.951243 
L 159.76362 172.908623 
L 160.583221 170.296473 
L 160.993022 169.621003 
L 161.402823 169.761248 
L 162.632225 171.203005 
L 163.042026 171.089323 
L 163.451827 174.194284 
L 163.861627 175.04121 
L 164.271428 174.832341 
L 165.50083 174.036919 
L 165.910631 174.936229 
L 166.320432 174.819588 
L 166.730233 176.493959 
L 167.140033 177.330386 
L 168.369436 175.919947 
L 168.779237 174.510036 
L 169.189037 175.078446 
L 169.598838 174.079263 
L 170.008639 171.306401 
L 171.238041 169.56964 
L 171.647842 168.413691 
L 172.057643 168.997496 
L 172.467443 168.244137 
L 174.106646 168.562954 
L 174.516447 167.115806 
L 174.926248 167.284339 
L 175.336049 166.696976 
L 175.745849 166.527562 
L 177.385052 166.071918 
L 177.794853 168.775909 
L 178.204654 167.736883 
L 178.614455 169.433976 
L 179.843857 167.566378 
L 180.253658 165.85241 
L 180.663458 165.04332 
L 181.48306 163.062568 
L 183.532064 160.40927 
L 183.941865 160.996774 
L 184.351665 161.039154 
L 185.581068 164.131609 
L 185.990868 161.533972 
L 186.400669 162.609566 
L 186.81047 161.677316 
L 187.220271 161.904399 
L 188.449673 165.370662 
L 188.859474 164.420094 
L 189.269274 164.166978 
L 189.679075 165.387325 
L 190.088876 165.082529 
L 191.318278 165.02648 
L 191.728079 164.387472 
L 192.54768 162.567362 
L 192.957481 163.504508 
L 194.186884 161.084317 
L 195.006485 158.606985 
L 195.416286 158.709324 
L 195.826087 157.308678 
L 197.055489 156.199371 
L 197.46529 156.296214 
L 197.87509 156.191092 
L 198.284891 155.610598 
L 198.694692 156.209446 
L 199.924094 156.111229 
L 200.333895 155.609612 
L 200.743696 155.705151 
L 201.153496 154.772057 
L 201.563297 154.257581 
L 202.792699 153.877925 
L 203.2025 153.923475 
L 203.612301 154.516757 
L 204.022102 153.906108 
L 204.431902 153.533673 
L 205.661305 151.889951 
L 206.071106 150.75838 
L 206.480906 150.120534 
L 206.890707 149.142559 
L 207.300508 148.732359 
L 208.52991 149.721643 
L 208.939711 150.375905 
L 209.349512 149.892289 
L 209.759312 152.250443 
L 210.169113 150.970913 
L 211.398515 149.898454 
L 211.808316 148.721156 
L 212.218117 148.585069 
L 212.627918 147.012579 
L 213.037718 146.932399 
L 214.267121 145.970981 
L 214.676921 145.361424 
L 215.496523 143.203579 
L 215.906324 143.042057 
L 217.545527 142.949793 
L 218.365128 144.296399 
L 218.774929 144.900179 
L 220.004331 144.916665 
L 220.414132 144.371823 
L 220.823933 144.435023 
L 221.233734 144.666227 
L 221.643534 143.638121 
L 222.872937 143.139217 
L 223.282737 143.174868 
L 223.692538 142.635133 
L 224.102339 142.694458 
L 224.51214 141.827205 
L 225.741542 145.240943 
L 226.151343 142.42873 
L 226.561143 141.691576 
L 226.970944 141.338517 
L 227.380745 141.541996 
L 228.610147 141.600968 
L 229.429749 140.560075 
L 229.839549 140.885621 
L 230.24935 141.413131 
L 231.478753 141.948109 
L 232.298354 143.832652 
L 233.117956 156.859022 
L 234.347358 157.267284 
L 234.757159 157.926831 
L 235.166959 157.318929 
L 235.57676 156.24006 
L 235.986561 157.169631 
L 237.625764 157.796309 
L 238.035565 161.5159 
L 238.445365 166.649805 
L 238.855166 167.491693 
L 240.084568 171.086364 
L 240.494369 172.983484 
L 240.90417 173.48489 
L 241.313971 172.167488 
L 241.723771 169.335195 
L 242.953174 167.329326 
L 243.772775 162.057079 
L 244.592377 158.522331 
L 245.821779 159.318564 
L 247.051181 164.740144 
L 247.460982 165.056812 
L 248.690384 165.133469 
L 249.100185 166.335004 
L 249.509986 170.531552 
L 250.329587 169.915055 
L 251.55899 168.596385 
L 251.96879 170.676587 
L 252.378591 170.209635 
L 253.198193 166.534502 
L 254.427595 166.857371 
L 254.837396 163.75086 
L 255.656997 166.403876 
L 256.066798 170.184482 
L 257.2962 172.047219 
L 257.706001 173.982702 
L 258.115802 174.526312 
L 258.525603 174.338544 
L 258.935403 174.294051 
L 260.164806 176.900882 
L 260.574606 181.792697 
L 260.984407 184.331573 
L 261.394208 188.936453 
L 261.804009 195.513419 
L 263.033411 202.976027 
L 263.853012 202.540816 
L 264.262813 203.60732 
L 264.672614 202.291293 
L 265.902016 199.847182 
L 267.131418 195.737401 
L 267.541219 197.070057 
L 268.770622 194.752169 
L 269.590223 190.388709 
L 270.409825 186.966375 
L 271.639227 185.482027 
L 272.049028 185.649186 
L 272.458828 184.073419 
L 272.868629 183.82749 
L 273.27843 182.881008 
L 274.917633 180.968529 
L 275.327434 181.142029 
L 276.147035 178.110977 
L 277.376437 176.844235 
L 277.786238 176.726854 
L 278.196039 176.325602 
L 278.60584 175.162783 
L 279.01564 175.323918 
L 280.245043 172.339755 
L 280.654844 169.921854 
L 281.064644 168.660536 
L 281.474445 167.887167 
L 281.884246 169.709251 
L 283.113648 169.139431 
L 283.523449 168.202391 
L 283.93325 167.621968 
L 284.34305 166.131032 
L 284.752851 165.842405 
L 286.392054 164.131292 
L 287.621456 161.840389 
L 289.260659 160.033418 
L 289.67046 159.203684 
L 290.080261 158.635767 
L 290.490062 159.724571 
L 291.719464 158.691886 
L 292.129265 158.613855 
L 292.539065 158.17977 
L 292.948866 158.695091 
L 293.358667 160.292488 
L 294.588069 160.538946 
L 294.99787 160.147382 
L 295.407671 158.058409 
L 295.817472 156.871951 
L 296.227272 156.127188 
L 297.456675 158.7473 
L 297.866475 155.128427 
L 298.276276 154.248492 
L 298.686077 154.382818 
L 299.095878 152.739625 
L 300.32528 155.235064 
L 301.144881 153.839596 
L 301.554682 154.427382 
L 301.964483 153.512923 
L 303.193885 153.499959 
L 304.013487 149.810278 
L 304.423287 149.216714 
L 304.833088 147.569329 
L 306.062491 146.657547 
L 306.472291 145.804597 
L 306.882092 145.9831 
L 307.291893 145.637086 
L 307.701694 145.071107 
L 308.931096 145.651248 
L 309.340897 144.164046 
L 309.750697 144.113916 
L 310.160498 144.572942 
L 311.799701 144.407298 
L 312.209502 143.21612 
L 312.619303 143.348121 
L 313.029103 142.400794 
L 314.668306 140.850674 
L 315.078107 139.914796 
L 315.487908 141.284794 
L 315.897709 140.851026 
L 316.307509 141.232937 
L 317.536912 139.896478 
L 317.946713 139.865829 
L 318.356513 142.94775 
L 318.766314 143.652882 
L 319.176115 145.795191 
L 320.405517 146.407073 
L 320.815318 150.484197 
L 321.225119 150.590199 
L 321.634919 150.316615 
L 322.04472 149.279949 
L 323.274122 148.992309 
L 323.683923 149.406102 
L 324.093724 148.558155 
L 324.503525 148.515035 
L 324.913325 151.433109 
L 326.552528 149.932837 
L 326.962329 153.161802 
L 327.37213 154.520526 
L 327.781931 154.818136 
L 329.011333 158.379375 
L 329.421134 160.157317 
L 329.830935 158.696712 
L 330.650536 154.363267 
L 331.879938 151.57515 
L 332.289739 149.017005 
L 332.69954 148.28517 
L 333.109341 146.981261 
L 333.519141 146.140641 
L 334.748544 145.530837 
L 335.158344 144.916665 
L 335.568145 144.747816 
L 335.977946 143.716399 
L 336.387747 143.409066 
L 337.617149 144.969825 
L 338.02695 141.666 
L 338.43675 142.654333 
L 338.846551 141.917777 
L 339.256352 140.462527 
L 340.485754 143.419388 
L 340.895555 138.665104 
L 342.124957 132.558367 
L 343.35436 132.422878 
L 343.76416 133.176801 
L 344.173961 133.079219 
L 344.993563 132.14327 
L 346.222965 131.29483 
L 346.632766 130.411266 
L 347.452367 131.225042 
L 347.862168 131.509441 
L 349.09157 131.935951 
L 350.320972 131.061688 
L 350.730773 131.354577 
L 352.369976 128.700364 
L 352.779777 129.510124 
L 353.189578 132.673916 
L 353.599378 133.782976 
L 354.828781 135.822701 
L 355.238582 143.045403 
L 355.648382 144.365728 
L 356.058183 146.616541 
L 356.467984 144.197161 
L 358.107187 141.586983 
L 358.516988 141.773094 
L 358.926788 145.685948 
L 359.336589 146.941312 
L 360.565991 145.324963 
L 360.975792 142.436797 
L 361.385593 141.613439 
L 361.795394 139.716355 
L 362.205194 138.544834 
L 363.434597 142.425877 
L 363.844397 140.744989 
L 364.254198 142.139153 
L 364.663999 141.669523 
L 365.0738 140.249466 
L 366.713003 138.852308 
L 367.122804 140.138708 
L 367.532604 138.637837 
L 367.942405 138.041738 
L 369.171807 135.963579 
L 369.581608 136.864052 
L 369.991409 137.244871 
L 370.81101 134.564272 
L 372.040413 133.091971 
L 372.450213 134.63952 
L 373.269815 132.552026 
L 373.679616 123.631948 
L 374.909018 131.550059 
L 375.318819 127.791224 
L 375.728619 130.061765 
L 376.548221 128.861956 
L 377.777623 129.45101 
L 378.187424 129.862795 
L 378.597225 131.588846 
L 379.007025 136.325621 
L 379.416826 137.292077 
L 381.056029 135.7285 
L 381.46583 138.124348 
L 381.875631 136.681851 
L 382.285432 136.763827 
L 383.514834 135.018401 
L 383.924635 132.090076 
L 384.334435 131.75301 
L 384.744236 130.294273 
L 385.154037 129.619402 
L 386.383439 130.031856 
L 386.79324 128.855615 
L 387.203041 129.567969 
L 387.612841 129.15171 
L 388.022642 129.176722 
L 389.661845 127.319622 
L 390.891247 125.499053 
L 392.12065 125.31805 
L 392.530451 124.670481 
L 392.940251 124.316295 
L 393.350052 123.565719 
L 393.759853 122.100781 
L 394.989255 121.092791 
L 395.399056 119.502334 
L 396.218657 119.347893 
L 396.628458 118.032394 
L 398.267661 116.159441 
L 398.677462 116.222112 
L 399.087263 117.104267 
L 399.497063 116.533426 
L 400.726466 115.418059 
L 401.136266 114.603579 
L 401.546067 115.722574 
L 402.365669 112.625786 
L 403.595071 109.673998 
L 404.004872 113.035809 
L 404.414673 115.240261 
L 404.824473 115.128094 
L 405.234274 114.413627 
L 406.463676 113.790824 
L 406.873477 113.161821 
L 407.283278 112.964542 
L 407.693079 112.541449 
L 408.102879 113.030842 
L 409.332282 111.811869 
L 409.742082 111.130058 
L 410.151883 109.825128 
L 410.561684 110.123442 
L 410.971485 108.70483 
L 412.200887 113.104822 
L 412.610688 107.008582 
L 413.430289 101.866011 
L 413.84009 102.36488 
L 415.069492 101.279916 
L 415.479293 102.226045 
L 416.298894 101.768499 
L 416.708695 101.4116 
L 417.938098 101.562131 
L 418.347898 102.02327 
L 418.757699 101.40931 
L 419.1675 101.602643 
L 419.577301 100.302715 
L 420.806703 98.817451 
L 421.216504 98.099355 
L 421.626304 97.974013 
L 422.036105 97.360334 
L 422.445906 96.120893 
L 424.085109 95.427246 
L 424.49491 95.553892 
L 424.90471 94.118898 
L 425.314511 94.333862 
L 426.543913 94.606882 
L 426.953714 97.328769 
L 427.363515 96.578228 
L 427.773316 96.510519 
L 428.183116 97.243552 
L 429.412519 100.63809 
L 430.23212 97.753765 
L 431.051722 93.763056 
L 432.281124 92.946004 
L 432.690925 91.061813 
L 433.100726 90.225385 
L 433.510526 89.755614 
L 433.920327 88.539671 
L 435.55953 87.451113 
L 435.969331 88.410242 
L 436.379132 87.783916 
L 436.788932 88.7007 
L 438.018335 89.385012 
L 439.247737 110.874371 
L 439.657538 124.502371 
L 440.88694 145.622854 
L 441.296741 137.419534 
L 441.706542 138.674827 
L 442.116342 129.259896 
L 442.526143 131.789859 
L 443.755545 137.32868 
L 444.165346 162.045347 
L 444.575147 160.719139 
L 444.984948 165.515768 
L 445.394748 191.864884 
L 446.624151 193.356807 
L 447.033951 208.713078 
L 447.443752 213.215267 
L 447.853553 224.098764 
L 449.902557 236.078182 
L 450.312357 226.909674 
L 450.722158 226.721448 
L 451.131959 219.735093 
L 452.361361 211.394452 
L 452.771162 201.245186 
L 453.180963 199.161391 
L 453.590763 199.297407 
L 454.000564 197.587174 
L 455.229967 196.894795 
L 455.639767 190.503236 
L 456.049568 187.031301 
L 456.459369 180.544168 
L 458.098572 186.370628 
L 458.508373 178.271936 
L 458.918173 173.48496 
L 459.327974 172.394676 
L 459.737775 170.243806 
L 460.967177 167.132822 
L 461.376978 164.852452 
L 461.786779 165.314966 
L 462.196579 162.513639 
L 462.60638 162.259571 
L 463.835782 160.683171 
L 464.245583 157.523043 
L 464.655384 156.987183 
L 465.474985 154.379472 
L 466.704388 153.561609 
L 467.114189 152.443143 
L 467.523989 150.956856 
L 468.343591 149.883482 
L 469.572993 144.629307 
L 469.982794 144.529646 
L 470.392595 146.41197 
L 470.802395 151.601184 
L 471.212196 152.38181 
L 472.441598 152.649334 
L 472.851399 150.158052 
L 473.671001 142.69016 
L 474.080801 141.2118 
L 475.720004 138.151897 
L 476.129805 138.146049 
L 476.539606 137.073203 
L 476.949407 134.470177 
L 478.178809 137.11125 
L 478.58861 132.391455 
L 479.408211 129.937479 
L 479.818012 129.748092 
L 481.047414 138.463457 
L 481.457215 140.46989 
L 481.867016 131.080852 
L 482.276817 127.97642 
L 482.686617 132.895679 
L 484.32582 129.446713 
L 485.555223 119.074978 
L 486.784625 132.058405 
L 487.194426 122.617265 
L 487.604226 119.646348 
L 488.014027 122.810351 
L 488.423828 120.975727 
L 489.65323 136.787113 
L 490.063031 127.981105 
L 490.472832 125.312554 
L 490.882632 121.477027 
L 492.521836 118.081467 
L 492.931636 114.973512 
L 493.751238 112.180252 
L 494.161039 111.677367 
L 495.390441 109.832315 
L 495.800242 110.429471 
L 497.029644 105.110547 
L 498.259046 103.739246 
L 498.668847 101.812464 
L 499.078648 101.451654 
L 499.488448 99.517791 
L 499.898249 99.761079 
L 501.127651 99.77281 
L 501.537452 98.53277 
L 501.947253 98.10242 
L 502.357054 97.93357 
L 502.766854 97.246546 
L 503.996257 97.679785 
L 504.406058 95.572422 
L 505.225659 92.814461 
L 505.63546 90.215627 
L 506.864862 88.289197 
L 507.274663 86.984126 
L 507.684464 87.744355 
L 508.094264 83.522055 
L 508.504065 82.17249 
L 509.733467 80.197832 
L 510.143268 80.08792 
L 510.553069 79.400508 
L 510.96287 79.244587 
L 511.37267 78.657717 
L 512.602073 77.703415 
L 513.421674 73.22652 
L 513.831475 71.355856 
L 514.241276 70.091615 
L 515.470678 68.152996 
L 515.880479 67.979285 
L 516.70008 64.151649 
L 517.109881 67.789545 
L 518.749084 69.819581 
L 519.158885 75.808902 
L 519.568686 74.214782 
L 519.978486 77.153887 
L 521.207889 77.966888 
L 522.02749 76.33222 
L 522.847092 79.618678 
L 524.076494 87.689786 
L 524.486295 88.75474 
L 524.896095 87.569199 
L 525.305896 91.073016 
L 525.715697 93.495426 
L 526.945099 90.677506 
L 527.3549 86.538205 
L 527.764701 84.19844 
L 528.174501 83.827978 
L 528.584302 79.577989 
L 529.813705 78.987948 
L 530.223505 76.729984 
L 530.633306 78.21694 
L 531.043107 75.386584 
L 531.452908 73.878069 
L 532.68231 72.156985 
L 533.092111 67.662687 
L 533.501911 66.052785 
L 534.321513 66.029499 
L 535.960716 69.313666 
L 536.370517 68.594795 
L 536.780317 69.20171 
L 537.190118 68.553085 
L 538.41952 66.293641 
L 538.829321 68.559356 
L 539.239122 70.007771 
L 539.648923 78.865459 
L 540.058723 81.730162 
L 541.288126 85.907687 
L 541.697927 86.669853 
L 542.107727 84.43898 
L 542.107727 84.43898 
" clip-path="url(#p491e5bcf84)" style="fill: none; stroke-dasharray: 5.55,2.4; stroke-dashoffset: 0; stroke: #ff0000; stroke-width: 1.5"/>
   </g>
   <g id="patch_3">
    <path d="M 57.17 246.04 
L 57.17 26.88 
" style="fill: none; stroke: #000000; stroke-width: 0.8; stroke-linejoin: miter; stroke-linecap: square"/>
   </g>
   <g id="patch_4">
    <path d="M 565.2 246.04 
L 565.2 26.88 
" style="fill: none; stroke: #000000; stroke-width: 0.8; stroke-linejoin: miter; stroke-linecap: square"/>
   </g>
   <g id="patch_5">
    <path d="M 57.17 246.04 
L 565.2 246.04 
" style="fill: none; stroke: #000000; stroke-width: 0.8; stroke-linejoin: miter; stroke-linecap: square"/>
   </g>
   <g id="patch_6">
    <path d="M 57.17 26.88 
L 565.2 26.88 
" style="fill: none; stroke: #000000; stroke-width: 0.8; stroke-linejoin: miter; stroke-linecap: square"/>
   </g>
   <g id="text_21">
    <!-- Single Layer LSTM: Real vs Predicted Stock Prices -->
    <g transform="translate(162.50125 20.88) scale(0.12 -0.12)">
     <defs>
      <path id="DejaVuSans-6e" d="M 3513 2113 
L 3513 0 
L 2938 0 
L 2938 2094 
Q 2938 2591 2744 2837 
Q 2550 3084 2163 3084 
Q 1697 3084 1428 2787 
Q 1159 2491 1159 1978 
L 1159 0 
L 581 0 
L 581 3500 
L 1159 3500 
L 1159 2956 
Q 1366 3272 1645 3428 
Q 1925 3584 2291 3584 
Q 2894 3584 3203 3211 
Q 3513 2838 3513 2113 
z
" transform="scale(0.015625)"/>
      <path id="DejaVuSans-67" d="M 2906 1791 
Q 2906 2416 2648 2759 
Q 2391 3103 1925 3103 
Q 1463 3103 1205 2759 
Q 947 2416 947 1791 
Q 947 1169 1205 825 
Q 1463 481 1925 481 
Q 2391 481 2648 825 
Q 2906 1169 2906 1791 
z
M 3481 434 
Q 3481 -459 3084 -895 
Q 2688 -1331 1869 -1331 
Q 1566 -1331 1297 -1286 
Q 1028 -1241 775 -1147 
L 775 -588 
Q 1028 -725 1275 -790 
Q 1522 -856 1778 -856 
Q 2344 -856 2625 -561 
Q 2906 -266 2906 331 
L 2906 616 
Q 2728 306 2450 153 
Q 2172 0 1784 0 
Q 1141 0 747 490 
Q 353 981 353 1791 
Q 353 2603 747 3093 
Q 1141 3584 1784 3584 
Q 2172 3584 2450 3431 
Q 2728 3278 2906 2969 
L 2906 3500 
L 3481 3500 
L 3481 434 
z
" transform="scale(0.015625)"/>
      <path id="DejaVuSans-6c" d="M 603 4863 
L 1178 4863 
L 1178 0 
L 603 0 
L 603 4863 
z
" transform="scale(0.015625)"/>
      <path id="DejaVuSans-4c" d="M 628 4666 
L 1259 4666 
L 1259 531 
L 3531 531 
L 3531 0 
L 628 0 
L 628 4666 
z
" transform="scale(0.015625)"/>
      <path id="DejaVuSans-79" d="M 2059 -325 
Q 1816 -950 1584 -1140 
Q 1353 -1331 966 -1331 
L 506 -1331 
L 506 -850 
L 844 -850 
Q 1081 -850 1212 -737 
Q 1344 -625 1503 -206 
L 1606 56 
L 191 3500 
L 800 3500 
L 1894 763 
L 2988 3500 
L 3597 3500 
L 2059 -325 
z
" transform="scale(0.015625)"/>
      <path id="DejaVuSans-54" d="M -19 4666 
L 3928 4666 
L 3928 4134 
L 2272 4134 
L 2272 0 
L 1638 0 
L 1638 4134 
L -19 4134 
L -19 4666 
z
" transform="scale(0.015625)"/>
      <path id="DejaVuSans-4d" d="M 628 4666 
L 1569 4666 
L 2759 1491 
L 3956 4666 
L 4897 4666 
L 4897 0 
L 4281 0 
L 4281 4097 
L 3078 897 
L 2444 897 
L 1241 4097 
L 1241 0 
L 628 0 
L 628 4666 
z
" transform="scale(0.015625)"/>
      <path id="DejaVuSans-3a" d="M 750 794 
L 1409 794 
L 1409 0 
L 750 0 
L 750 794 
z
M 750 3309 
L 1409 3309 
L 1409 2516 
L 750 2516 
L 750 3309 
z
" transform="scale(0.015625)"/>
      <path id="DejaVuSans-52" d="M 2841 2188 
Q 3044 2119 3236 1894 
Q 3428 1669 3622 1275 
L 4263 0 
L 3584 0 
L 2988 1197 
Q 2756 1666 2539 1819 
Q 2322 1972 1947 1972 
L 1259 1972 
L 1259 0 
L 628 0 
L 628 4666 
L 2053 4666 
Q 2853 4666 3247 4331 
Q 3641 3997 3641 3322 
Q 3641 2881 3436 2590 
Q 3231 2300 2841 2188 
z
M 1259 4147 
L 1259 2491 
L 2053 2491 
Q 2509 2491 2742 2702 
Q 2975 2913 2975 3322 
Q 2975 3731 2742 3939 
Q 2509 4147 2053 4147 
L 1259 4147 
z
" transform="scale(0.015625)"/>
      <path id="DejaVuSans-76" d="M 191 3500 
L 800 3500 
L 1894 563 
L 2988 3500 
L 3597 3500 
L 2284 0 
L 1503 0 
L 191 3500 
z
" transform="scale(0.015625)"/>
      <path id="DejaVuSans-73" d="M 2834 3397 
L 2834 2853 
Q 2591 2978 2328 3040 
Q 2066 3103 1784 3103 
Q 1356 3103 1142 2972 
Q 928 2841 928 2578 
Q 928 2378 1081 2264 
Q 1234 2150 1697 2047 
L 1894 2003 
Q 2506 1872 2764 1633 
Q 3022 1394 3022 966 
Q 3022 478 2636 193 
Q 2250 -91 1575 -91 
Q 1294 -91 989 -36 
Q 684 19 347 128 
L 347 722 
Q 666 556 975 473 
Q 1284 391 1588 391 
Q 1994 391 2212 530 
Q 2431 669 2431 922 
Q 2431 1156 2273 1281 
Q 2116 1406 1581 1522 
L 1381 1569 
Q 847 1681 609 1914 
Q 372 2147 372 2553 
Q 372 3047 722 3315 
Q 1072 3584 1716 3584 
Q 2034 3584 2315 3537 
Q 2597 3491 2834 3397 
z
" transform="scale(0.015625)"/>
      <path id="DejaVuSans-64" d="M 2906 2969 
L 2906 4863 
L 3481 4863 
L 3481 0 
L 2906 0 
L 2906 525 
Q 2725 213 2448 61 
Q 2172 -91 1784 -91 
Q 1150 -91 751 415 
Q 353 922 353 1747 
Q 353 2572 751 3078 
Q 1150 3584 1784 3584 
Q 2172 3584 2448 3432 
Q 2725 3281 2906 2969 
z
M 947 1747 
Q 947 1113 1208 752 
Q 1469 391 1925 391 
Q 2381 391 2643 752 
Q 2906 1113 2906 1747 
Q 2906 2381 2643 2742 
Q 2381 3103 1925 3103 
Q 1469 3103 1208 2742 
Q 947 2381 947 1747 
z
" transform="scale(0.015625)"/>
     </defs>
     <use xlink:href="#DejaVuSans-53"/>
     <use xlink:href="#DejaVuSans-69" transform="translate(63.476562 0)"/>
     <use xlink:href="#DejaVuSans-6e" transform="translate(91.259766 0)"/>
     <use xlink:href="#DejaVuSans-67" transform="translate(154.638672 0)"/>
     <use xlink:href="#DejaVuSans-6c" transform="translate(218.115234 0)"/>
     <use xlink:href="#DejaVuSans-65" transform="translate(245.898438 0)"/>
     <use xlink:href="#DejaVuSans-20" transform="translate(307.421875 0)"/>
     <use xlink:href="#DejaVuSans-4c" transform="translate(339.208984 0)"/>
     <use xlink:href="#DejaVuSans-61" transform="translate(394.921875 0)"/>
     <use xlink:href="#DejaVuSans-79" transform="translate(456.201172 0)"/>
     <use xlink:href="#DejaVuSans-65" transform="translate(515.380859 0)"/>
     <use xlink:href="#DejaVuSans-72" transform="translate(576.904297 0)"/>
     <use xlink:href="#DejaVuSans-20" transform="translate(618.017578 0)"/>
     <use xlink:href="#DejaVuSans-4c" transform="translate(649.804688 0)"/>
     <use xlink:href="#DejaVuSans-53" transform="translate(705.517578 0)"/>
     <use xlink:href="#DejaVuSans-54" transform="translate(768.994141 0)"/>
     <use xlink:href="#DejaVuSans-4d" transform="translate(830.078125 0)"/>
     <use xlink:href="#DejaVuSans-3a" transform="translate(916.357422 0)"/>
     <use xlink:href="#DejaVuSans-20" transform="translate(950.048828 0)"/>
     <use xlink:href="#DejaVuSans-52" transform="translate(981.835938 0)"/>
     <use xlink:href="#DejaVuSans-65" transform="translate(1046.818359 0)"/>
     <use xlink:href="#DejaVuSans-61" transform="translate(1108.341797 0)"/>
     <use xlink:href="#DejaVuSans-6c" transform="translate(1169.621094 0)"/>
     <use xlink:href="#DejaVuSans-20" transform="translate(1197.404297 0)"/>
     <use xlink:href="#DejaVuSans-76" transform="translate(1229.191406 0)"/>
     <use xlink:href="#DejaVuSans-73" transform="translate(1288.371094 0)"/>
     <use xlink:href="#DejaVuSans-20" transform="translate(1340.470703 0)"/>
     <use xlink:href="#DejaVuSans-50" transform="translate(1372.257812 0)"/>
     <use xlink:href="#DejaVuSans-72" transform="translate(1430.810547 0)"/>
     <use xlink:href="#DejaVuSans-65" transform="translate(1469.673828 0)"/>
     <use xlink:href="#DejaVuSans-64" transform="translate(1531.197266 0)"/>
     <use xlink:href="#DejaVuSans-69" transform="translate(1594.673828 0)"/>
     <use xlink:href="#DejaVuSans-63" transform="translate(1622.457031 0)"/>
     <use xlink:href="#DejaVuSans-74" transform="translate(1677.4375 0)"/>
     <use xlink:href="#DejaVuSans-65" transform="translate(1716.646484 0)"/>
     <use xlink:href="#DejaVuSans-64" transform="translate(1778.169922 0)"/>
     <use xlink:href="#DejaVuSans-20" transform="translate(1841.646484 0)"/>
     <use xlink:href="#DejaVuSans-53" transform="translate(1873.433594 0)"/>
     <use xlink:href="#DejaVuSans-74" transform="translate(1936.910156 0)"/>
     <use xlink:href="#DejaVuSans-6f" transform="translate(1976.119141 0)"/>
     <use xlink:href="#DejaVuSans-63" transform="translate(2037.300781 0)"/>
     <use xlink:href="#DejaVuSans-6b" transform="translate(2092.28125 0)"/>
     <use xlink:href="#DejaVuSans-20" transform="translate(2150.191406 0)"/>
     <use xlink:href="#DejaVuSans-50" transform="translate(2181.978516 0)"/>
     <use xlink:href="#DejaVuSans-72" transform="translate(2240.53125 0)"/>
     <use xlink:href="#DejaVuSans-69" transform="translate(2281.644531 0)"/>
     <use xlink:href="#DejaVuSans-63" transform="translate(2309.427734 0)"/>
     <use xlink:href="#DejaVuSans-65" transform="translate(2364.408203 0)"/>
     <use xlink:href="#DejaVuSans-73" transform="translate(2425.931641 0)"/>
    </g>
   </g>
   <g id="legend_1">
    <g id="patch_7">
     <path d="M 64.17 64.23625 
L 175.893438 64.23625 
Q 177.893438 64.23625 177.893438 62.23625 
L 177.893438 33.88 
Q 177.893438 31.88 175.893438 31.88 
L 64.17 31.88 
Q 62.17 31.88 62.17 33.88 
L 62.17 62.23625 
Q 62.17 64.23625 64.17 64.23625 
z
" style="fill: #ffffff; opacity: 0.8; stroke: #cccccc; stroke-linejoin: miter"/>
    </g>
    <g id="line2d_21">
     <path d="M 66.17 39.978438 
L 76.17 39.978438 
L 86.17 39.978438 
" style="fill: none; stroke: #0000ff; stroke-width: 1.5; stroke-linecap: square"/>
    </g>
    <g id="text_22">
     <!-- Real Prices -->
     <g transform="translate(94.17 43.478438) scale(0.1 -0.1)">
      <use xlink:href="#DejaVuSans-52"/>
      <use xlink:href="#DejaVuSans-65" transform="translate(64.982422 0)"/>
      <use xlink:href="#DejaVuSans-61" transform="translate(126.505859 0)"/>
      <use xlink:href="#DejaVuSans-6c" transform="translate(187.785156 0)"/>
      <use xlink:href="#DejaVuSans-20" transform="translate(215.568359 0)"/>
      <use xlink:href="#DejaVuSans-50" transform="translate(247.355469 0)"/>
      <use xlink:href="#DejaVuSans-72" transform="translate(305.908203 0)"/>
      <use xlink:href="#DejaVuSans-69" transform="translate(347.021484 0)"/>
      <use xlink:href="#DejaVuSans-63" transform="translate(374.804688 0)"/>
      <use xlink:href="#DejaVuSans-65" transform="translate(429.785156 0)"/>
      <use xlink:href="#DejaVuSans-73" transform="translate(491.308594 0)"/>
     </g>
    </g>
    <g id="line2d_22">
     <path d="M 66.17 54.656563 
L 76.17 54.656563 
L 86.17 54.656563 
" style="fill: none; stroke-dasharray: 5.55,2.4; stroke-dashoffset: 0; stroke: #ff0000; stroke-width: 1.5"/>
    </g>
    <g id="text_23">
     <!-- Predicted Prices -->
     <g transform="translate(94.17 58.156563) scale(0.1 -0.1)">
      <use xlink:href="#DejaVuSans-50"/>
      <use xlink:href="#DejaVuSans-72" transform="translate(58.552734 0)"/>
      <use xlink:href="#DejaVuSans-65" transform="translate(97.416016 0)"/>
      <use xlink:href="#DejaVuSans-64" transform="translate(158.939453 0)"/>
      <use xlink:href="#DejaVuSans-69" transform="translate(222.416016 0)"/>
      <use xlink:href="#DejaVuSans-63" transform="translate(250.199219 0)"/>
      <use xlink:href="#DejaVuSans-74" transform="translate(305.179688 0)"/>
      <use xlink:href="#DejaVuSans-65" transform="translate(344.388672 0)"/>
      <use xlink:href="#DejaVuSans-64" transform="translate(405.912109 0)"/>
      <use xlink:href="#DejaVuSans-20" transform="translate(469.388672 0)"/>
      <use xlink:href="#DejaVuSans-50" transform="translate(501.175781 0)"/>
      <use xlink:href="#DejaVuSans-72" transform="translate(559.728516 0)"/>
      <use xlink:href="#DejaVuSans-69" transform="translate(600.841797 0)"/>
      <use xlink:href="#DejaVuSans-63" transform="translate(628.625 0)"/>
      <use xlink:href="#DejaVuSans-65" transform="translate(683.605469 0)"/>
      <use xlink:href="#DejaVuSans-73" transform="translate(745.128906 0)"/>
     </g>
    </g>
   </g>
  </g>
 </g>
 <defs>
  <clipPath id="p491e5bcf84">
   <rect x="57.17" y="26.88" width="508.03" height="219.16"/>
  </clipPath>
 </defs>
</svg>
