<?xml version="1.0" encoding="utf-8" standalone="no"?>
<!DOCTYPE svg PUBLIC "-//W3C//DTD SVG 1.1//EN"
  "http://www.w3.org/Graphics/SVG/1.1/DTD/svg11.dtd">
<svg xmlns:xlink="http://www.w3.org/1999/xlink" width="576pt" height="288pt" viewBox="0 0 576 288" xmlns="http://www.w3.org/2000/svg" version="1.1">
 <metadata>
  <rdf:RDF xmlns:dc="http://purl.org/dc/elements/1.1/" xmlns:cc="http://creativecommons.org/ns#" xmlns:rdf="http://www.w3.org/1999/02/22-rdf-syntax-ns#">
   <cc:Work>
    <dc:type rdf:resource="http://purl.org/dc/dcmitype/StillImage"/>
    <dc:date>2025-03-05T10:58:56.966882</dc:date>
    <dc:format>image/svg+xml</dc:format>
    <dc:creator>
     <cc:Agent>
      <dc:title>Matplotlib v3.10.0, https://matplotlib.org/</dc:title>
     </cc:Agent>
    </dc:creator>
   </cc:Work>
  </rdf:RDF>
 </metadata>
 <defs>
  <style type="text/css">*{stroke-linejoin: round; stroke-linecap: butt}</style>
 </defs>
 <g id="figure_1">
  <g id="patch_1">
   <path d="M 0 288 
L 576 288 
L 576 0 
L 0 0 
z
" style="fill: #ffffff"/>
  </g>
  <g id="axes_1">
   <g id="patch_2">
    <path d="M 57.17 246.04 
L 565.2 246.04 
L 565.2 26.88 
L 57.17 26.88 
z
" style="fill: #ffffff"/>
   </g>
   <g id="matplotlib.axis_1">
    <g id="xtick_1">
     <g id="line2d_1">
      <defs>
       <path id="m461919920a" d="M 0 0 
L 0 3.5 
" style="stroke: #000000; stroke-width: 0.8"/>
      </defs>
      <g>
       <use xlink:href="#m461919920a" x="66.738848" y="246.04" style="stroke: #000000; stroke-width: 0.8"/>
      </g>
     </g>
     <g id="text_1">
      <!-- 2017-09 -->
      <g transform="translate(45.847441 260.638438) scale(0.1 -0.1)">
       <defs>
        <path id="DejaVuSans-32" d="M 1228 531 
L 3431 531 
L 3431 0 
L 469 0 
L 469 531 
Q 828 903 1448 1529 
Q 2069 2156 2228 2338 
Q 2531 2678 2651 2914 
Q 2772 3150 2772 3378 
Q 2772 3750 2511 3984 
Q 2250 4219 1831 4219 
Q 1534 4219 1204 4116 
Q 875 4013 500 3803 
L 500 4441 
Q 881 4594 1212 4672 
Q 1544 4750 1819 4750 
Q 2544 4750 2975 4387 
Q 3406 4025 3406 3419 
Q 3406 3131 3298 2873 
Q 3191 2616 2906 2266 
Q 2828 2175 2409 1742 
Q 1991 1309 1228 531 
z
" transform="scale(0.015625)"/>
        <path id="DejaVuSans-30" d="M 2034 4250 
Q 1547 4250 1301 3770 
Q 1056 3291 1056 2328 
Q 1056 1369 1301 889 
Q 1547 409 2034 409 
Q 2525 409 2770 889 
Q 3016 1369 3016 2328 
Q 3016 3291 2770 3770 
Q 2525 4250 2034 4250 
z
M 2034 4750 
Q 2819 4750 3233 4129 
Q 3647 3509 3647 2328 
Q 3647 1150 3233 529 
Q 2819 -91 2034 -91 
Q 1250 -91 836 529 
Q 422 1150 422 2328 
Q 422 3509 836 4129 
Q 1250 4750 2034 4750 
z
" transform="scale(0.015625)"/>
        <path id="DejaVuSans-31" d="M 794 531 
L 1825 531 
L 1825 4091 
L 703 3866 
L 703 4441 
L 1819 4666 
L 2450 4666 
L 2450 531 
L 3481 531 
L 3481 0 
L 794 0 
L 794 531 
z
" transform="scale(0.015625)"/>
        <path id="DejaVuSans-37" d="M 525 4666 
L 3525 4666 
L 3525 4397 
L 1831 0 
L 1172 0 
L 2766 4134 
L 525 4134 
L 525 4666 
z
" transform="scale(0.015625)"/>
        <path id="DejaVuSans-2d" d="M 313 2009 
L 1997 2009 
L 1997 1497 
L 313 1497 
L 313 2009 
z
" transform="scale(0.015625)"/>
        <path id="DejaVuSans-39" d="M 703 97 
L 703 672 
Q 941 559 1184 500 
Q 1428 441 1663 441 
Q 2288 441 2617 861 
Q 2947 1281 2994 2138 
Q 2813 1869 2534 1725 
Q 2256 1581 1919 1581 
Q 1219 1581 811 2004 
Q 403 2428 403 3163 
Q 403 3881 828 4315 
Q 1253 4750 1959 4750 
Q 2769 4750 3195 4129 
Q 3622 3509 3622 2328 
Q 3622 1225 3098 567 
Q 2575 -91 1691 -91 
Q 1453 -91 1209 -44 
Q 966 3 703 97 
z
M 1959 2075 
Q 2384 2075 2632 2365 
Q 2881 2656 2881 3163 
Q 2881 3666 2632 3958 
Q 2384 4250 1959 4250 
Q 1534 4250 1286 3958 
Q 1038 3666 1038 3163 
Q 1038 2656 1286 2365 
Q 1534 2075 1959 2075 
z
" transform="scale(0.015625)"/>
       </defs>
       <use xlink:href="#DejaVuSans-32"/>
       <use xlink:href="#DejaVuSans-30" transform="translate(63.623047 0)"/>
       <use xlink:href="#DejaVuSans-31" transform="translate(127.246094 0)"/>
       <use xlink:href="#DejaVuSans-37" transform="translate(190.869141 0)"/>
       <use xlink:href="#DejaVuSans-2d" transform="translate(254.492188 0)"/>
       <use xlink:href="#DejaVuSans-30" transform="translate(290.576172 0)"/>
       <use xlink:href="#DejaVuSans-39" transform="translate(354.199219 0)"/>
      </g>
     </g>
    </g>
    <g id="xtick_2">
     <g id="line2d_2">
      <g>
       <use xlink:href="#m461919920a" x="116.73454" y="246.04" style="stroke: #000000; stroke-width: 0.8"/>
      </g>
     </g>
     <g id="text_2">
      <!-- 2018-01 -->
      <g transform="translate(95.843134 260.638438) scale(0.1 -0.1)">
       <defs>
        <path id="DejaVuSans-38" d="M 2034 2216 
Q 1584 2216 1326 1975 
Q 1069 1734 1069 1313 
Q 1069 891 1326 650 
Q 1584 409 2034 409 
Q 2484 409 2743 651 
Q 3003 894 3003 1313 
Q 3003 1734 2745 1975 
Q 2488 2216 2034 2216 
z
M 1403 2484 
Q 997 2584 770 2862 
Q 544 3141 544 3541 
Q 544 4100 942 4425 
Q 1341 4750 2034 4750 
Q 2731 4750 3128 4425 
Q 3525 4100 3525 3541 
Q 3525 3141 3298 2862 
Q 3072 2584 2669 2484 
Q 3125 2378 3379 2068 
Q 3634 1759 3634 1313 
Q 3634 634 3220 271 
Q 2806 -91 2034 -91 
Q 1263 -91 848 271 
Q 434 634 434 1313 
Q 434 1759 690 2068 
Q 947 2378 1403 2484 
z
M 1172 3481 
Q 1172 3119 1398 2916 
Q 1625 2713 2034 2713 
Q 2441 2713 2670 2916 
Q 2900 3119 2900 3481 
Q 2900 3844 2670 4047 
Q 2441 4250 2034 4250 
Q 1625 4250 1398 4047 
Q 1172 3844 1172 3481 
z
" transform="scale(0.015625)"/>
       </defs>
       <use xlink:href="#DejaVuSans-32"/>
       <use xlink:href="#DejaVuSans-30" transform="translate(63.623047 0)"/>
       <use xlink:href="#DejaVuSans-31" transform="translate(127.246094 0)"/>
       <use xlink:href="#DejaVuSans-38" transform="translate(190.869141 0)"/>
       <use xlink:href="#DejaVuSans-2d" transform="translate(254.492188 0)"/>
       <use xlink:href="#DejaVuSans-30" transform="translate(290.576172 0)"/>
       <use xlink:href="#DejaVuSans-31" transform="translate(354.199219 0)"/>
      </g>
     </g>
    </g>
    <g id="xtick_3">
     <g id="line2d_3">
      <g>
       <use xlink:href="#m461919920a" x="165.910631" y="246.04" style="stroke: #000000; stroke-width: 0.8"/>
      </g>
     </g>
     <g id="text_3">
      <!-- 2018-05 -->
      <g transform="translate(145.019225 260.638438) scale(0.1 -0.1)">
       <defs>
        <path id="DejaVuSans-35" d="M 691 4666 
L 3169 4666 
L 3169 4134 
L 1269 4134 
L 1269 2991 
Q 1406 3038 1543 3061 
Q 1681 3084 1819 3084 
Q 2600 3084 3056 2656 
Q 3513 2228 3513 1497 
Q 3513 744 3044 326 
Q 2575 -91 1722 -91 
Q 1428 -91 1123 -41 
Q 819 9 494 109 
L 494 744 
Q 775 591 1075 516 
Q 1375 441 1709 441 
Q 2250 441 2565 725 
Q 2881 1009 2881 1497 
Q 2881 1984 2565 2268 
Q 2250 2553 1709 2553 
Q 1456 2553 1204 2497 
Q 953 2441 691 2322 
L 691 4666 
z
" transform="scale(0.015625)"/>
       </defs>
       <use xlink:href="#DejaVuSans-32"/>
       <use xlink:href="#DejaVuSans-30" transform="translate(63.623047 0)"/>
       <use xlink:href="#DejaVuSans-31" transform="translate(127.246094 0)"/>
       <use xlink:href="#DejaVuSans-38" transform="translate(190.869141 0)"/>
       <use xlink:href="#DejaVuSans-2d" transform="translate(254.492188 0)"/>
       <use xlink:href="#DejaVuSans-30" transform="translate(290.576172 0)"/>
       <use xlink:href="#DejaVuSans-35" transform="translate(354.199219 0)"/>
      </g>
     </g>
    </g>
    <g id="xtick_4">
     <g id="line2d_4">
      <g>
       <use xlink:href="#m461919920a" x="216.316124" y="246.04" style="stroke: #000000; stroke-width: 0.8"/>
      </g>
     </g>
     <g id="text_4">
      <!-- 2018-09 -->
      <g transform="translate(195.424718 260.638438) scale(0.1 -0.1)">
       <use xlink:href="#DejaVuSans-32"/>
       <use xlink:href="#DejaVuSans-30" transform="translate(63.623047 0)"/>
       <use xlink:href="#DejaVuSans-31" transform="translate(127.246094 0)"/>
       <use xlink:href="#DejaVuSans-38" transform="translate(190.869141 0)"/>
       <use xlink:href="#DejaVuSans-2d" transform="translate(254.492188 0)"/>
       <use xlink:href="#DejaVuSans-30" transform="translate(290.576172 0)"/>
       <use xlink:href="#DejaVuSans-39" transform="translate(354.199219 0)"/>
      </g>
     </g>
    </g>
    <g id="xtick_5">
     <g id="line2d_5">
      <g>
       <use xlink:href="#m461919920a" x="266.311817" y="246.04" style="stroke: #000000; stroke-width: 0.8"/>
      </g>
     </g>
     <g id="text_5">
      <!-- 2019-01 -->
      <g transform="translate(245.420411 260.638438) scale(0.1 -0.1)">
       <use xlink:href="#DejaVuSans-32"/>
       <use xlink:href="#DejaVuSans-30" transform="translate(63.623047 0)"/>
       <use xlink:href="#DejaVuSans-31" transform="translate(127.246094 0)"/>
       <use xlink:href="#DejaVuSans-39" transform="translate(190.869141 0)"/>
       <use xlink:href="#DejaVuSans-2d" transform="translate(254.492188 0)"/>
       <use xlink:href="#DejaVuSans-30" transform="translate(290.576172 0)"/>
       <use xlink:href="#DejaVuSans-31" transform="translate(354.199219 0)"/>
      </g>
     </g>
    </g>
    <g id="xtick_6">
     <g id="line2d_6">
      <g>
       <use xlink:href="#m461919920a" x="315.487908" y="246.04" style="stroke: #000000; stroke-width: 0.8"/>
      </g>
     </g>
     <g id="text_6">
      <!-- 2019-05 -->
      <g transform="translate(294.596502 260.638438) scale(0.1 -0.1)">
       <use xlink:href="#DejaVuSans-32"/>
       <use xlink:href="#DejaVuSans-30" transform="translate(63.623047 0)"/>
       <use xlink:href="#DejaVuSans-31" transform="translate(127.246094 0)"/>
       <use xlink:href="#DejaVuSans-39" transform="translate(190.869141 0)"/>
       <use xlink:href="#DejaVuSans-2d" transform="translate(254.492188 0)"/>
       <use xlink:href="#DejaVuSans-30" transform="translate(290.576172 0)"/>
       <use xlink:href="#DejaVuSans-35" transform="translate(354.199219 0)"/>
      </g>
     </g>
    </g>
    <g id="xtick_7">
     <g id="line2d_7">
      <g>
       <use xlink:href="#m461919920a" x="365.893401" y="246.04" style="stroke: #000000; stroke-width: 0.8"/>
      </g>
     </g>
     <g id="text_7">
      <!-- 2019-09 -->
      <g transform="translate(345.001995 260.638438) scale(0.1 -0.1)">
       <use xlink:href="#DejaVuSans-32"/>
       <use xlink:href="#DejaVuSans-30" transform="translate(63.623047 0)"/>
       <use xlink:href="#DejaVuSans-31" transform="translate(127.246094 0)"/>
       <use xlink:href="#DejaVuSans-39" transform="translate(190.869141 0)"/>
       <use xlink:href="#DejaVuSans-2d" transform="translate(254.492188 0)"/>
       <use xlink:href="#DejaVuSans-30" transform="translate(290.576172 0)"/>
       <use xlink:href="#DejaVuSans-39" transform="translate(354.199219 0)"/>
      </g>
     </g>
    </g>
    <g id="xtick_8">
     <g id="line2d_8">
      <g>
       <use xlink:href="#m461919920a" x="415.889094" y="246.04" style="stroke: #000000; stroke-width: 0.8"/>
      </g>
     </g>
     <g id="text_8">
      <!-- 2020-01 -->
      <g transform="translate(394.997687 260.638438) scale(0.1 -0.1)">
       <use xlink:href="#DejaVuSans-32"/>
       <use xlink:href="#DejaVuSans-30" transform="translate(63.623047 0)"/>
       <use xlink:href="#DejaVuSans-32" transform="translate(127.246094 0)"/>
       <use xlink:href="#DejaVuSans-30" transform="translate(190.869141 0)"/>
       <use xlink:href="#DejaVuSans-2d" transform="translate(254.492188 0)"/>
       <use xlink:href="#DejaVuSans-30" transform="translate(290.576172 0)"/>
       <use xlink:href="#DejaVuSans-31" transform="translate(354.199219 0)"/>
      </g>
     </g>
    </g>
    <g id="xtick_9">
     <g id="line2d_9">
      <g>
       <use xlink:href="#m461919920a" x="465.474985" y="246.04" style="stroke: #000000; stroke-width: 0.8"/>
      </g>
     </g>
     <g id="text_9">
      <!-- 2020-05 -->
      <g transform="translate(444.583579 260.638438) scale(0.1 -0.1)">
       <use xlink:href="#DejaVuSans-32"/>
       <use xlink:href="#DejaVuSans-30" transform="translate(63.623047 0)"/>
       <use xlink:href="#DejaVuSans-32" transform="translate(127.246094 0)"/>
       <use xlink:href="#DejaVuSans-30" transform="translate(190.869141 0)"/>
       <use xlink:href="#DejaVuSans-2d" transform="translate(254.492188 0)"/>
       <use xlink:href="#DejaVuSans-30" transform="translate(290.576172 0)"/>
       <use xlink:href="#DejaVuSans-35" transform="translate(354.199219 0)"/>
      </g>
     </g>
    </g>
    <g id="xtick_10">
     <g id="line2d_10">
      <g>
       <use xlink:href="#m461919920a" x="515.880479" y="246.04" style="stroke: #000000; stroke-width: 0.8"/>
      </g>
     </g>
     <g id="text_10">
      <!-- 2020-09 -->
      <g transform="translate(494.989072 260.638438) scale(0.1 -0.1)">
       <use xlink:href="#DejaVuSans-32"/>
       <use xlink:href="#DejaVuSans-30" transform="translate(63.623047 0)"/>
       <use xlink:href="#DejaVuSans-32" transform="translate(127.246094 0)"/>
       <use xlink:href="#DejaVuSans-30" transform="translate(190.869141 0)"/>
       <use xlink:href="#DejaVuSans-2d" transform="translate(254.492188 0)"/>
       <use xlink:href="#DejaVuSans-30" transform="translate(290.576172 0)"/>
       <use xlink:href="#DejaVuSans-39" transform="translate(354.199219 0)"/>
      </g>
     </g>
    </g>
    <g id="text_11">
     <!-- Date -->
     <g transform="translate(299.234219 274.316562) scale(0.1 -0.1)">
      <defs>
       <path id="DejaVuSans-44" d="M 1259 4147 
L 1259 519 
L 2022 519 
Q 2988 519 3436 956 
Q 3884 1394 3884 2338 
Q 3884 3275 3436 3711 
Q 2988 4147 2022 4147 
L 1259 4147 
z
M 628 4666 
L 1925 4666 
Q 3281 4666 3915 4102 
Q 4550 3538 4550 2338 
Q 4550 1131 3912 565 
Q 3275 0 1925 0 
L 628 0 
L 628 4666 
z
" transform="scale(0.015625)"/>
       <path id="DejaVuSans-61" d="M 2194 1759 
Q 1497 1759 1228 1600 
Q 959 1441 959 1056 
Q 959 750 1161 570 
Q 1363 391 1709 391 
Q 2188 391 2477 730 
Q 2766 1069 2766 1631 
L 2766 1759 
L 2194 1759 
z
M 3341 1997 
L 3341 0 
L 2766 0 
L 2766 531 
Q 2569 213 2275 61 
Q 1981 -91 1556 -91 
Q 1019 -91 701 211 
Q 384 513 384 1019 
Q 384 1609 779 1909 
Q 1175 2209 1959 2209 
L 2766 2209 
L 2766 2266 
Q 2766 2663 2505 2880 
Q 2244 3097 1772 3097 
Q 1472 3097 1187 3025 
Q 903 2953 641 2809 
L 641 3341 
Q 956 3463 1253 3523 
Q 1550 3584 1831 3584 
Q 2591 3584 2966 3190 
Q 3341 2797 3341 1997 
z
" transform="scale(0.015625)"/>
       <path id="DejaVuSans-74" d="M 1172 4494 
L 1172 3500 
L 2356 3500 
L 2356 3053 
L 1172 3053 
L 1172 1153 
Q 1172 725 1289 603 
Q 1406 481 1766 481 
L 2356 481 
L 2356 0 
L 1766 0 
Q 1100 0 847 248 
Q 594 497 594 1153 
L 594 3053 
L 172 3053 
L 172 3500 
L 594 3500 
L 594 4494 
L 1172 4494 
z
" transform="scale(0.015625)"/>
       <path id="DejaVuSans-65" d="M 3597 1894 
L 3597 1613 
L 953 1613 
Q 991 1019 1311 708 
Q 1631 397 2203 397 
Q 2534 397 2845 478 
Q 3156 559 3463 722 
L 3463 178 
Q 3153 47 2828 -22 
Q 2503 -91 2169 -91 
Q 1331 -91 842 396 
Q 353 884 353 1716 
Q 353 2575 817 3079 
Q 1281 3584 2069 3584 
Q 2775 3584 3186 3129 
Q 3597 2675 3597 1894 
z
M 3022 2063 
Q 3016 2534 2758 2815 
Q 2500 3097 2075 3097 
Q 1594 3097 1305 2825 
Q 1016 2553 972 2059 
L 3022 2063 
z
" transform="scale(0.015625)"/>
      </defs>
      <use xlink:href="#DejaVuSans-44"/>
      <use xlink:href="#DejaVuSans-61" transform="translate(77.001953 0)"/>
      <use xlink:href="#DejaVuSans-74" transform="translate(138.28125 0)"/>
      <use xlink:href="#DejaVuSans-65" transform="translate(177.490234 0)"/>
     </g>
    </g>
   </g>
   <g id="matplotlib.axis_2">
    <g id="ytick_1">
     <g id="line2d_11">
      <defs>
       <path id="mf8b5d460b6" d="M 0 0 
L -3.5 0 
" style="stroke: #000000; stroke-width: 0.8"/>
      </defs>
      <g>
       <use xlink:href="#mf8b5d460b6" x="57.17" y="219.946933" style="stroke: #000000; stroke-width: 0.8"/>
      </g>
     </g>
     <g id="text_12">
      <!-- 2200 -->
      <g transform="translate(24.72 223.746152) scale(0.1 -0.1)">
       <use xlink:href="#DejaVuSans-32"/>
       <use xlink:href="#DejaVuSans-32" transform="translate(63.623047 0)"/>
       <use xlink:href="#DejaVuSans-30" transform="translate(127.246094 0)"/>
       <use xlink:href="#DejaVuSans-30" transform="translate(190.869141 0)"/>
      </g>
     </g>
    </g>
    <g id="ytick_2">
     <g id="line2d_12">
      <g>
       <use xlink:href="#mf8b5d460b6" x="57.17" y="193.426105" style="stroke: #000000; stroke-width: 0.8"/>
      </g>
     </g>
     <g id="text_13">
      <!-- 2400 -->
      <g transform="translate(24.72 197.225324) scale(0.1 -0.1)">
       <defs>
        <path id="DejaVuSans-34" d="M 2419 4116 
L 825 1625 
L 2419 1625 
L 2419 4116 
z
M 2253 4666 
L 3047 4666 
L 3047 1625 
L 3713 1625 
L 3713 1100 
L 3047 1100 
L 3047 0 
L 2419 0 
L 2419 1100 
L 313 1100 
L 313 1709 
L 2253 4666 
z
" transform="scale(0.015625)"/>
       </defs>
       <use xlink:href="#DejaVuSans-32"/>
       <use xlink:href="#DejaVuSans-34" transform="translate(63.623047 0)"/>
       <use xlink:href="#DejaVuSans-30" transform="translate(127.246094 0)"/>
       <use xlink:href="#DejaVuSans-30" transform="translate(190.869141 0)"/>
      </g>
     </g>
    </g>
    <g id="ytick_3">
     <g id="line2d_13">
      <g>
       <use xlink:href="#mf8b5d460b6" x="57.17" y="166.905276" style="stroke: #000000; stroke-width: 0.8"/>
      </g>
     </g>
     <g id="text_14">
      <!-- 2600 -->
      <g transform="translate(24.72 170.704495) scale(0.1 -0.1)">
       <defs>
        <path id="DejaVuSans-36" d="M 2113 2584 
Q 1688 2584 1439 2293 
Q 1191 2003 1191 1497 
Q 1191 994 1439 701 
Q 1688 409 2113 409 
Q 2538 409 2786 701 
Q 3034 994 3034 1497 
Q 3034 2003 2786 2293 
Q 2538 2584 2113 2584 
z
M 3366 4563 
L 3366 3988 
Q 3128 4100 2886 4159 
Q 2644 4219 2406 4219 
Q 1781 4219 1451 3797 
Q 1122 3375 1075 2522 
Q 1259 2794 1537 2939 
Q 1816 3084 2150 3084 
Q 2853 3084 3261 2657 
Q 3669 2231 3669 1497 
Q 3669 778 3244 343 
Q 2819 -91 2113 -91 
Q 1303 -91 875 529 
Q 447 1150 447 2328 
Q 447 3434 972 4092 
Q 1497 4750 2381 4750 
Q 2619 4750 2861 4703 
Q 3103 4656 3366 4563 
z
" transform="scale(0.015625)"/>
       </defs>
       <use xlink:href="#DejaVuSans-32"/>
       <use xlink:href="#DejaVuSans-36" transform="translate(63.623047 0)"/>
       <use xlink:href="#DejaVuSans-30" transform="translate(127.246094 0)"/>
       <use xlink:href="#DejaVuSans-30" transform="translate(190.869141 0)"/>
      </g>
     </g>
    </g>
    <g id="ytick_4">
     <g id="line2d_14">
      <g>
       <use xlink:href="#mf8b5d460b6" x="57.17" y="140.384448" style="stroke: #000000; stroke-width: 0.8"/>
      </g>
     </g>
     <g id="text_15">
      <!-- 2800 -->
      <g transform="translate(24.72 144.183667) scale(0.1 -0.1)">
       <use xlink:href="#DejaVuSans-32"/>
       <use xlink:href="#DejaVuSans-38" transform="translate(63.623047 0)"/>
       <use xlink:href="#DejaVuSans-30" transform="translate(127.246094 0)"/>
       <use xlink:href="#DejaVuSans-30" transform="translate(190.869141 0)"/>
      </g>
     </g>
    </g>
    <g id="ytick_5">
     <g id="line2d_15">
      <g>
       <use xlink:href="#mf8b5d460b6" x="57.17" y="113.86362" style="stroke: #000000; stroke-width: 0.8"/>
      </g>
     </g>
     <g id="text_16">
      <!-- 3000 -->
      <g transform="translate(24.72 117.662838) scale(0.1 -0.1)">
       <defs>
        <path id="DejaVuSans-33" d="M 2597 2516 
Q 3050 2419 3304 2112 
Q 3559 1806 3559 1356 
Q 3559 666 3084 287 
Q 2609 -91 1734 -91 
Q 1441 -91 1130 -33 
Q 819 25 488 141 
L 488 750 
Q 750 597 1062 519 
Q 1375 441 1716 441 
Q 2309 441 2620 675 
Q 2931 909 2931 1356 
Q 2931 1769 2642 2001 
Q 2353 2234 1838 2234 
L 1294 2234 
L 1294 2753 
L 1863 2753 
Q 2328 2753 2575 2939 
Q 2822 3125 2822 3475 
Q 2822 3834 2567 4026 
Q 2313 4219 1838 4219 
Q 1578 4219 1281 4162 
Q 984 4106 628 3988 
L 628 4550 
Q 988 4650 1302 4700 
Q 1616 4750 1894 4750 
Q 2613 4750 3031 4423 
Q 3450 4097 3450 3541 
Q 3450 3153 3228 2886 
Q 3006 2619 2597 2516 
z
" transform="scale(0.015625)"/>
       </defs>
       <use xlink:href="#DejaVuSans-33"/>
       <use xlink:href="#DejaVuSans-30" transform="translate(63.623047 0)"/>
       <use xlink:href="#DejaVuSans-30" transform="translate(127.246094 0)"/>
       <use xlink:href="#DejaVuSans-30" transform="translate(190.869141 0)"/>
      </g>
     </g>
    </g>
    <g id="ytick_6">
     <g id="line2d_16">
      <g>
       <use xlink:href="#mf8b5d460b6" x="57.17" y="87.342791" style="stroke: #000000; stroke-width: 0.8"/>
      </g>
     </g>
     <g id="text_17">
      <!-- 3200 -->
      <g transform="translate(24.72 91.14201) scale(0.1 -0.1)">
       <use xlink:href="#DejaVuSans-33"/>
       <use xlink:href="#DejaVuSans-32" transform="translate(63.623047 0)"/>
       <use xlink:href="#DejaVuSans-30" transform="translate(127.246094 0)"/>
       <use xlink:href="#DejaVuSans-30" transform="translate(190.869141 0)"/>
      </g>
     </g>
    </g>
    <g id="ytick_7">
     <g id="line2d_17">
      <g>
       <use xlink:href="#mf8b5d460b6" x="57.17" y="60.821963" style="stroke: #000000; stroke-width: 0.8"/>
      </g>
     </g>
     <g id="text_18">
      <!-- 3400 -->
      <g transform="translate(24.72 64.621182) scale(0.1 -0.1)">
       <use xlink:href="#DejaVuSans-33"/>
       <use xlink:href="#DejaVuSans-34" transform="translate(63.623047 0)"/>
       <use xlink:href="#DejaVuSans-30" transform="translate(127.246094 0)"/>
       <use xlink:href="#DejaVuSans-30" transform="translate(190.869141 0)"/>
      </g>
     </g>
    </g>
    <g id="ytick_8">
     <g id="line2d_18">
      <g>
       <use xlink:href="#mf8b5d460b6" x="57.17" y="34.301134" style="stroke: #000000; stroke-width: 0.8"/>
      </g>
     </g>
     <g id="text_19">
      <!-- 3600 -->
      <g transform="translate(24.72 38.100353) scale(0.1 -0.1)">
       <use xlink:href="#DejaVuSans-33"/>
       <use xlink:href="#DejaVuSans-36" transform="translate(63.623047 0)"/>
       <use xlink:href="#DejaVuSans-30" transform="translate(127.246094 0)"/>
       <use xlink:href="#DejaVuSans-30" transform="translate(190.869141 0)"/>
      </g>
     </g>
    </g>
    <g id="text_20">
     <!-- Stock Price -->
     <g transform="translate(18.640313 164.085) rotate(-90) scale(0.1 -0.1)">
      <defs>
       <path id="DejaVuSans-53" d="M 3425 4513 
L 3425 3897 
Q 3066 4069 2747 4153 
Q 2428 4238 2131 4238 
Q 1616 4238 1336 4038 
Q 1056 3838 1056 3469 
Q 1056 3159 1242 3001 
Q 1428 2844 1947 2747 
L 2328 2669 
Q 3034 2534 3370 2195 
Q 3706 1856 3706 1288 
Q 3706 609 3251 259 
Q 2797 -91 1919 -91 
Q 1588 -91 1214 -16 
Q 841 59 441 206 
L 441 856 
Q 825 641 1194 531 
Q 1563 422 1919 422 
Q 2459 422 2753 634 
Q 3047 847 3047 1241 
Q 3047 1584 2836 1778 
Q 2625 1972 2144 2069 
L 1759 2144 
Q 1053 2284 737 2584 
Q 422 2884 422 3419 
Q 422 4038 858 4394 
Q 1294 4750 2059 4750 
Q 2388 4750 2728 4690 
Q 3069 4631 3425 4513 
z
" transform="scale(0.015625)"/>
       <path id="DejaVuSans-6f" d="M 1959 3097 
Q 1497 3097 1228 2736 
Q 959 2375 959 1747 
Q 959 1119 1226 758 
Q 1494 397 1959 397 
Q 2419 397 2687 759 
Q 2956 1122 2956 1747 
Q 2956 2369 2687 2733 
Q 2419 3097 1959 3097 
z
M 1959 3584 
Q 2709 3584 3137 3096 
Q 3566 2609 3566 1747 
Q 3566 888 3137 398 
Q 2709 -91 1959 -91 
Q 1206 -91 779 398 
Q 353 888 353 1747 
Q 353 2609 779 3096 
Q 1206 3584 1959 3584 
z
" transform="scale(0.015625)"/>
       <path id="DejaVuSans-63" d="M 3122 3366 
L 3122 2828 
Q 2878 2963 2633 3030 
Q 2388 3097 2138 3097 
Q 1578 3097 1268 2742 
Q 959 2388 959 1747 
Q 959 1106 1268 751 
Q 1578 397 2138 397 
Q 2388 397 2633 464 
Q 2878 531 3122 666 
L 3122 134 
Q 2881 22 2623 -34 
Q 2366 -91 2075 -91 
Q 1284 -91 818 406 
Q 353 903 353 1747 
Q 353 2603 823 3093 
Q 1294 3584 2113 3584 
Q 2378 3584 2631 3529 
Q 2884 3475 3122 3366 
z
" transform="scale(0.015625)"/>
       <path id="DejaVuSans-6b" d="M 581 4863 
L 1159 4863 
L 1159 1991 
L 2875 3500 
L 3609 3500 
L 1753 1863 
L 3688 0 
L 2938 0 
L 1159 1709 
L 1159 0 
L 581 0 
L 581 4863 
z
" transform="scale(0.015625)"/>
       <path id="DejaVuSans-20" transform="scale(0.015625)"/>
       <path id="DejaVuSans-50" d="M 1259 4147 
L 1259 2394 
L 2053 2394 
Q 2494 2394 2734 2622 
Q 2975 2850 2975 3272 
Q 2975 3691 2734 3919 
Q 2494 4147 2053 4147 
L 1259 4147 
z
M 628 4666 
L 2053 4666 
Q 2838 4666 3239 4311 
Q 3641 3956 3641 3272 
Q 3641 2581 3239 2228 
Q 2838 1875 2053 1875 
L 1259 1875 
L 1259 0 
L 628 0 
L 628 4666 
z
" transform="scale(0.015625)"/>
       <path id="DejaVuSans-72" d="M 2631 2963 
Q 2534 3019 2420 3045 
Q 2306 3072 2169 3072 
Q 1681 3072 1420 2755 
Q 1159 2438 1159 1844 
L 1159 0 
L 581 0 
L 581 3500 
L 1159 3500 
L 1159 2956 
Q 1341 3275 1631 3429 
Q 1922 3584 2338 3584 
Q 2397 3584 2469 3576 
Q 2541 3569 2628 3553 
L 2631 2963 
z
" transform="scale(0.015625)"/>
       <path id="DejaVuSans-69" d="M 603 3500 
L 1178 3500 
L 1178 0 
L 603 0 
L 603 3500 
z
M 603 4863 
L 1178 4863 
L 1178 4134 
L 603 4134 
L 603 4863 
z
" transform="scale(0.015625)"/>
      </defs>
      <use xlink:href="#DejaVuSans-53"/>
      <use xlink:href="#DejaVuSans-74" transform="translate(63.476562 0)"/>
      <use xlink:href="#DejaVuSans-6f" transform="translate(102.685547 0)"/>
      <use xlink:href="#DejaVuSans-63" transform="translate(163.867188 0)"/>
      <use xlink:href="#DejaVuSans-6b" transform="translate(218.847656 0)"/>
      <use xlink:href="#DejaVuSans-20" transform="translate(276.757812 0)"/>
      <use xlink:href="#DejaVuSans-50" transform="translate(308.544922 0)"/>
      <use xlink:href="#DejaVuSans-72" transform="translate(367.097656 0)"/>
      <use xlink:href="#DejaVuSans-69" transform="translate(408.210938 0)"/>
      <use xlink:href="#DejaVuSans-63" transform="translate(435.994141 0)"/>
      <use xlink:href="#DejaVuSans-65" transform="translate(490.974609 0)"/>
     </g>
    </g>
   </g>
   <g id="line2d_19">
    <path d="M 80.262273 175.161212 
L 80.672073 173.260984 
L 81.081874 173.624318 
L 82.311277 174.23431 
L 83.130878 172.840639 
L 83.540679 173.412171 
L 83.95048 173.115139 
L 86.409284 171.93096 
L 86.819085 170.192538 
L 88.048487 171.549076 
L 88.458288 170.998782 
L 88.868089 172.587377 
L 89.277889 172.156413 
L 89.68769 169.415464 
L 90.917092 170.508121 
L 91.326893 170.185902 
L 91.736694 169.642212 
L 92.146495 169.577237 
L 92.556295 168.517731 
L 93.785698 168.081491 
L 94.195499 168.146465 
L 94.605299 167.650527 
L 95.0151 168.944713 
L 95.424901 169.252363 
L 96.654303 168.915544 
L 97.064104 169.707186 
L 97.473905 171.596796 
L 97.883705 168.809486 
L 98.293506 169.709841 
L 99.522908 169.273601 
L 99.932709 167.033899 
L 100.34251 167.29247 
L 101.162111 166.584385 
L 102.391514 166.716989 
L 102.801314 163.319655 
L 103.211115 163.448277 
L 103.620916 160.595961 
L 104.030717 161.306733 
L 105.260119 161.675377 
L 105.66992 162.984163 
L 106.07972 163.023951 
L 106.489521 162.001578 
L 106.899322 160.076163 
L 108.128724 158.950355 
L 108.538525 158.404011 
L 108.948326 158.571093 
L 109.358127 160.008534 
L 109.767927 156.852549 
L 110.99733 154.949699 
L 111.40713 156.102021 
L 111.816931 156.396398 
L 112.226732 155.690935 
L 112.636533 155.854036 
L 114.275736 156.230643 
L 114.685536 155.949507 
L 115.095337 155.297105 
L 115.505138 157.144271 
L 117.144341 154.200466 
L 117.554142 151.913044 
L 117.963942 150.46369 
L 118.373743 147.923007 
L 119.603146 147.318324 
L 120.012946 146.843591 
L 120.422747 147.249367 
L 121.242349 142.209082 
L 122.881552 143.511264 
L 123.291352 140.044974 
L 123.701153 140.645674 
L 124.110954 139.018619 
L 125.750157 135.195664 
L 126.159958 135.406483 
L 126.569758 135.179736 
L 126.979559 130.721569 
L 128.208961 133.286145 
L 128.618762 137.410146 
L 129.028563 137.227136 
L 129.438364 137.469812 
L 129.848164 145.406182 
L 131.077567 160.415638 
L 131.487368 154.289333 
L 131.897168 156.076834 
L 132.306969 169.424755 
L 132.71677 164.312859 
L 133.946172 159.479445 
L 134.355973 158.55918 
L 135.175574 149.50762 
L 135.585375 149.372361 
L 137.224578 151.488718 
L 137.634379 153.468488 
L 138.04418 153.119755 
L 138.45398 147.37268 
L 139.683383 143.08956 
L 140.912785 156.605923 
L 141.322586 154.805149 
L 142.961789 149.916018 
L 143.371589 150.091065 
L 143.78139 148.477283 
L 144.191191 142.165313 
L 145.420593 142.636064 
L 146.240195 147.083612 
L 146.649996 147.368698 
L 147.059796 146.74812 
L 148.289199 151.931627 
L 148.698999 151.398556 
L 149.1088 152.062904 
L 149.928402 168.462048 
L 151.157804 159.141297 
L 151.567605 165.231797 
L 151.977405 166.242256 
L 152.387206 161.48573 
L 154.026409 169.308079 
L 154.846011 160.979205 
L 155.255811 158.572421 
L 155.665612 166.31254 
L 156.895015 165.160218 
L 157.304815 159.364063 
L 157.714616 161.310716 
L 158.124417 158.419939 
L 158.534218 159.439657 
L 159.76362 156.583358 
L 160.173421 152.797536 
L 160.583221 152.499177 
L 160.993022 154.555868 
L 161.402823 157.604436 
L 162.632225 157.584526 
L 163.042026 162.32247 
L 163.451827 161.680686 
L 163.861627 158.028763 
L 164.271428 157.634933 
L 165.50083 160.533641 
L 165.910631 159.638563 
L 166.320432 162.175297 
L 166.730233 162.962958 
L 167.140033 158.495532 
L 168.369436 157.274253 
L 168.779237 157.368397 
L 169.598838 150.585676 
L 170.008639 149.969079 
L 171.238041 149.649515 
L 171.647842 152.126551 
L 172.057643 150.666578 
L 172.467443 150.975556 
L 172.877244 151.92499 
L 174.106646 149.267598 
L 174.516447 150.404025 
L 174.926248 149.230465 
L 175.745849 150.816406 
L 177.385052 154.989454 
L 177.794853 150.461036 
L 178.204654 152.946036 
L 178.614455 149.054091 
L 179.843857 147.429691 
L 180.253658 147.173774 
L 180.663458 144.05094 
L 181.073259 144.313493 
L 181.48306 143.165153 
L 182.712462 142.771323 
L 183.122263 142.12818 
L 183.532064 143.616027 
L 183.941865 142.706348 
L 184.351665 143.081628 
L 185.581068 143.865307 
L 185.990868 145.345157 
L 186.400669 144.717942 
L 186.81047 147.046479 
L 187.220271 146.367562 
L 188.449673 151.381301 
L 188.859474 150.587003 
L 189.269274 153.693941 
L 189.679075 151.482081 
L 190.088876 151.208909 
L 191.318278 150.103011 
L 191.728079 151.891839 
L 192.54768 148.79021 
L 192.957481 145.712473 
L 194.596684 141.201278 
L 195.006485 143.829501 
L 195.416286 140.611196 
L 195.826087 140.210729 
L 197.055489 140.592646 
L 197.46529 139.118072 
L 197.87509 138.313156 
L 198.284891 139.789057 
L 198.694692 140.141772 
L 199.924094 139.458874 
L 200.333895 137.679337 
L 200.743696 134.275366 
L 201.153496 135.419757 
L 201.563297 137.888829 
L 202.792699 140.039664 
L 203.2025 138.224321 
L 203.612301 138.612843 
L 204.431902 135.033858 
L 205.661305 133.701212 
L 206.071106 132.633742 
L 206.480906 132.733196 
L 206.890707 133.279508 
L 207.300508 135.971378 
L 208.52991 137.476448 
L 208.939711 135.085592 
L 209.349512 137.948494 
L 209.759312 134.988793 
L 210.169113 133.737018 
L 211.398515 132.819375 
L 211.808316 132.035696 
L 212.218117 132.186851 
L 212.627918 132.828667 
L 213.037718 130.480253 
L 214.267121 127.556325 
L 214.676921 127.45289 
L 215.086722 125.262267 
L 215.496523 126.974207 
L 215.906324 126.922473 
L 217.545527 127.558979 
L 217.955327 128.635708 
L 218.365128 130.034688 
L 218.774929 130.879392 
L 220.004331 130.156706 
L 220.414132 128.729884 
L 220.823933 128.593298 
L 221.233734 126.569758 
L 221.643534 126.463668 
L 222.872937 128.609194 
L 223.282737 126.552502 
L 223.692538 126.069837 
L 224.102339 123.046457 
L 224.51214 123.189679 
L 226.151343 125.060706 
L 226.561143 126.332391 
L 226.970944 125.267576 
L 227.380745 125.270231 
L 228.610147 123.863286 
L 229.019948 124.017128 
L 229.429749 123.741301 
L 229.839549 126.910527 
L 230.24935 129.037503 
L 231.478753 129.188689 
L 231.888553 129.73102 
L 232.298354 142.283348 
L 232.708155 149.882867 
L 233.117956 144.743162 
L 234.347358 146.909893 
L 234.757159 139.069025 
L 235.166959 139.163169 
L 235.57676 144.524346 
L 235.986561 144.65695 
L 237.215963 146.234958 
L 237.625764 148.249208 
L 238.035565 159.466171 
L 238.445365 152.906248 
L 238.855166 159.122747 
L 240.084568 161.435356 
L 240.494369 155.948212 
L 241.313971 148.291618 
L 241.723771 150.587003 
L 242.953174 148.56479 
L 243.362975 146.291969 
L 243.772775 138.542591 
L 244.182576 139.478751 
L 244.592377 142.902599 
L 245.821779 150.167986 
L 246.23158 150.703711 
L 246.641381 153.435337 
L 247.051181 149.640224 
L 247.460982 148.835307 
L 248.690384 154.874105 
L 249.100185 161.350503 
L 249.509986 160.284361 
L 250.329587 162.587678 
L 251.55899 157.165509 
L 251.96879 156.009204 
L 252.378591 147.838122 
L 252.788392 148.632419 
L 253.198193 145.666081 
L 254.427595 141.66141 
L 254.837396 153.636898 
L 255.656997 154.181916 
L 256.066798 162.518721 
L 257.2962 161.903452 
L 257.706001 162.028092 
L 258.115802 160.133174 
L 258.525603 160.203458 
L 258.935403 166.911913 
L 260.164806 174.073864 
L 260.574606 174.044695 
L 261.394208 184.485944 
L 261.804009 191.222209 
L 263.033411 199.910434 
L 263.853012 184.448811 
L 264.262813 181.646869 
L 264.672614 182.056627 
L 265.902016 179.257339 
L 266.721618 178.835667 
L 267.131418 187.075707 
L 267.541219 175.930322 
L 268.770622 173.576599 
L 269.180422 170.298628 
L 270.000024 167.350841 
L 270.409825 167.401215 
L 271.639227 169.211248 
L 272.049028 165.539447 
L 272.458828 164.770337 
L 272.868629 162.136837 
L 273.27843 157.528843 
L 274.917633 162.542613 
L 275.327434 161.773503 
L 275.737234 161.292133 
L 276.147035 158.317831 
L 277.376437 161.090572 
L 277.786238 161.601111 
L 278.196039 156.157704 
L 278.60584 153.101172 
L 279.01564 152.778953 
L 280.245043 150.346982 
L 280.654844 148.645693 
L 281.064644 149.453231 
L 281.474445 152.842601 
L 281.884246 152.599957 
L 283.113648 152.345335 
L 283.523449 147.713482 
L 283.93325 146.612861 
L 284.34305 147.580878 
L 284.752851 143.619976 
L 286.392054 143.068355 
L 286.801855 142.413298 
L 287.211656 143.71548 
L 287.621456 141.356447 
L 288.850859 140.900264 
L 289.67046 141.394907 
L 290.080261 142.44114 
L 290.490062 139.895147 
L 292.129265 141.756914 
L 292.948866 147.156551 
L 293.358667 147.933593 
L 294.588069 142.598931 
L 294.99787 141.508929 
L 295.407671 138.936421 
L 295.817472 139.259968 
L 296.227272 137.40351 
L 297.456675 136.016475 
L 297.866475 136.065522 
L 298.276276 137.171452 
L 298.686077 133.107148 
L 299.095878 140.290304 
L 300.32528 140.601905 
L 300.735081 137.936581 
L 301.144881 139.672348 
L 301.554682 138.337048 
L 301.964483 135.822879 
L 303.193885 131.474784 
L 303.603686 131.468147 
L 304.423287 129.857019 
L 304.833088 128.086741 
L 306.062491 127.684947 
L 306.472291 130.014811 
L 306.882092 128.687442 
L 307.291893 128.672841 
L 307.701694 126.141449 
L 308.931096 126.384092 
L 309.340897 126.187841 
L 309.750697 127.064369 
L 310.160498 126.457031 
L 311.799701 126.067183 
L 312.209502 122.657935 
L 312.619303 123.510571 
L 313.029103 123.653794 
L 313.438904 121.835796 
L 314.668306 121.418074 
L 315.078107 121.046776 
L 315.487908 123.97734 
L 315.897709 124.800807 
L 316.307509 121.071995 
L 317.536912 122.818381 
L 317.946713 129.239063 
L 318.356513 129.853037 
L 318.766314 131.006687 
L 319.176115 129.590484 
L 320.405517 138.810421 
L 321.634919 130.264091 
L 322.04472 132.49052 
L 323.274122 135.049786 
L 323.683923 131.850031 
L 324.093724 132.92281 
L 324.503525 137.435333 
L 324.913325 136.928776 
L 326.552528 140.067538 
L 326.962329 142.636064 
L 327.37213 141.861644 
L 327.781931 146.741483 
L 329.011333 147.750615 
L 329.421134 139.95083 
L 330.650536 130.659249 
L 331.879938 128.883693 
L 332.289739 129.017625 
L 332.69954 129.797322 
L 333.109341 128.232619 
L 333.519141 128.850542 
L 334.748544 128.493845 
L 335.158344 124.77031 
L 335.568145 123.615333 
L 335.977946 119.93955 
L 336.387747 120.432834 
L 337.617149 121.110423 
L 338.02695 124.819389 
L 338.43675 125.296745 
L 338.846551 123.819549 
L 339.256352 121.586484 
L 340.895555 117.442604 
L 341.305356 114.417896 
L 342.124957 115.135305 
L 343.35436 117.052756 
L 343.76416 116.564782 
L 344.173961 114.782557 
L 344.583762 113.875566 
L 344.993563 112.037658 
L 346.222965 111.967374 
L 346.632766 113.327894 
L 347.042566 115.929603 
L 347.452367 114.51204 
L 347.862168 116.965216 
L 349.09157 115.8487 
L 349.501371 113.138279 
L 349.911172 111.269875 
L 350.320972 113.376973 
L 350.730773 110.434462 
L 351.960175 111.082915 
L 352.369976 112.115906 
L 353.189578 120.021748 
L 353.599378 122.874065 
L 354.828781 134.45174 
L 355.238582 129.541405 
L 355.648382 129.248355 
L 356.058183 122.07313 
L 356.467984 124.65098 
L 357.697386 129.418092 
L 358.107187 123.633884 
L 358.516988 135.000707 
L 358.926788 134.072478 
L 359.336589 128.625122 
L 360.565991 123.987959 
L 360.975792 127.056404 
L 361.385593 123.884524 
L 361.795394 124.080775 
L 362.205194 134.137453 
L 363.434597 129.990951 
L 363.844397 131.213557 
L 364.254198 128.723248 
L 364.663999 123.864614 
L 365.0738 123.615333 
L 366.713003 126.292603 
L 367.532604 117.046119 
L 367.942405 116.686767 
L 369.171807 116.7239 
L 369.581608 116.596605 
L 369.991409 113.740307 
L 370.40121 112.594589 
L 370.81101 112.883689 
L 372.040413 114.134137 
L 372.450213 113.107783 
L 372.860014 112.971196 
L 373.269815 112.963232 
L 373.679616 114.915162 
L 374.909018 114.953622 
L 375.318819 118.292585 
L 375.728619 115.869905 
L 376.13842 116.831285 
L 376.548221 118.930419 
L 377.777623 116.947993 
L 378.187424 121.786717 
L 378.597225 128.766985 
L 379.007025 125.714467 
L 379.416826 120.227291 
L 380.646229 121.980314 
L 381.056029 128.044299 
L 381.46583 124.551527 
L 381.875631 122.067853 
L 382.285432 117.805938 
L 383.514834 118.352283 
L 383.924635 114.436479 
L 384.334435 115.230776 
L 384.744236 114.135465 
L 385.154037 115.693563 
L 386.383439 112.972524 
L 386.79324 114.395364 
L 387.203041 113.264246 
L 387.612841 112.499118 
L 388.022642 110.87339 
L 389.252044 108.636375 
L 389.661845 108.971867 
L 390.071646 107.661721 
L 390.481447 108.883 
L 390.891247 104.991088 
L 392.12065 103.484691 
L 392.530451 103.968683 
L 392.940251 103.68227 
L 393.759853 101.520816 
L 394.989255 102.325732 
L 395.399056 101.685244 
L 396.218657 101.050097 
L 396.628458 97.89013 
L 397.85786 97.681932 
L 398.267661 97.927263 
L 398.677462 99.48138 
L 399.087263 100.133782 
L 399.497063 99.238704 
L 401.136266 95.230083 
L 401.546067 93.491661 
L 402.365669 95.16909 
L 403.595071 98.763971 
L 404.004872 101.50492 
L 404.414673 98.911175 
L 404.824473 98.291924 
L 405.234274 94.515361 
L 406.873477 96.290916 
L 407.283278 95.082911 
L 407.693079 91.51053 
L 408.102879 91.480034 
L 409.332282 88.476563 
L 409.742082 88.334668 
L 410.151883 88.517678 
L 410.971485 84.528935 
L 412.200887 84.158965 
L 412.610688 84.242522 
L 413.430289 82.050572 
L 413.84009 82.035971 
L 415.069492 84.519644 
L 415.479293 83.261232 
L 416.298894 79.671629 
L 416.708695 82.721524 
L 417.938098 81.205868 
L 418.347898 82.412578 
L 418.757699 80.308135 
L 419.1675 77.437268 
L 419.577301 78.677098 
L 420.806703 75.656404 
L 421.216504 76.31677 
L 421.626304 75.502562 
L 422.036105 71.853294 
L 422.445906 70.154627 
L 424.085109 71.325532 
L 424.49491 71.198237 
L 424.90471 70.695662 
L 425.314511 74.683078 
L 426.543913 81.557288 
L 426.953714 77.233053 
L 427.363515 77.60966 
L 427.773316 76.24914 
L 428.183116 83.958731 
L 429.412519 80.855807 
L 430.23212 69.482347 
L 430.641921 68.011756 
L 431.051722 70.407921 
L 432.281124 67.175016 
L 432.690925 66.424488 
L 433.100726 63.546985 
L 433.510526 64.277635 
L 433.920327 63.452841 
L 435.55953 64.761627 
L 435.969331 62.658543 
L 436.379132 64.371778 
L 438.018335 83.909684 
L 438.428135 96.862448 
L 438.837936 98.429838 
L 439.247737 116.68013 
L 439.657538 119.934241 
L 440.88694 101.898751 
L 441.296741 113.416728 
L 441.706542 96.609153 
L 442.116342 110.689084 
L 442.526143 117.527457 
L 443.755545 147.470806 
L 444.165346 129.480412 
L 444.575147 148.157718 
L 444.984948 182.732921 
L 445.394748 152.183562 
L 446.624151 195.26534 
L 447.033951 176.294984 
L 447.443752 193.67804 
L 447.853553 192.180966 
L 448.263354 206.034117 
L 449.492756 214.987551 
L 449.902557 187.14994 
L 450.312357 183.406528 
L 450.722158 162.917861 
L 451.131959 174.666601 
L 452.361361 163.371389 
L 452.771162 168.948695 
L 453.180963 184.077513 
L 453.590763 176.598652 
L 454.000564 181.670761 
L 455.229967 158.461054 
L 455.639767 159.027276 
L 456.049568 147.01731 
L 456.459369 141.734349 
L 458.098572 145.472485 
L 458.508373 134.276693 
L 458.918173 142.590967 
L 459.327974 140.444113 
L 459.737775 130.497475 
L 460.967177 137.313348 
L 461.376978 148.796847 
L 461.786779 140.475937 
L 462.196579 140.676171 
L 462.60638 135.512573 
L 463.835782 129.977678 
L 464.245583 131.978686 
L 464.655384 121.884843 
L 465.065185 125.475773 
L 465.474985 136.31218 
L 466.704388 134.716948 
L 467.114189 131.309028 
L 467.523989 133.963766 
L 467.93379 129.618326 
L 468.343591 123.172424 
L 469.572993 123.120723 
L 470.392595 137.732365 
L 470.802395 133.422731 
L 471.212196 131.937571 
L 472.441598 119.975356 
L 472.851399 124.082103 
L 473.2612 117.628237 
L 473.671001 120.691406 
L 474.080801 119.771141 
L 475.720004 114.954949 
L 476.129805 109.072648 
L 476.539606 109.921301 
L 476.949407 107.987922 
L 478.178809 106.473594 
L 478.58861 103.146544 
L 478.998411 97.570533 
L 479.408211 98.965531 
L 479.818012 88.147707 
L 481.047414 83.047757 
L 481.457215 86.390703 
L 481.867016 88.650282 
L 482.276817 113.585138 
L 482.686617 108.385735 
L 483.91602 105.033498 
L 484.32582 97.32258 
L 484.735621 98.814377 
L 485.145422 98.569046 
L 485.555223 100.902892 
L 486.784625 98.234881 
L 487.194426 96.454017 
L 487.604226 107.189643 
L 488.014027 102.756695 
L 488.423828 112.663546 
L 489.65323 106.803776 
L 490.063031 100.564745 
L 490.882632 96.623754 
L 492.521836 90.032007 
L 492.931636 94.593577 
L 493.341437 91.32888 
L 493.751238 93.701153 
L 494.161039 89.326544 
L 495.390441 93.280809 
L 495.800242 87.671647 
L 496.210042 83.820817 
L 496.619843 85.278136 
L 498.259046 80.468581 
L 498.668847 79.744567 
L 499.078648 77.262222 
L 499.488448 82.614139 
L 499.898249 85.270204 
L 501.127651 82.116874 
L 501.537452 84.897579 
L 501.947253 79.593413 
L 502.357054 81.213832 
L 502.766854 77.911969 
L 503.996257 74.797099 
L 504.406058 73.219123 
L 505.225659 67.563569 
L 505.63546 67.282433 
L 506.864862 66.063808 
L 507.274663 69.614951 
L 507.684464 63.427621 
L 508.094264 64.345264 
L 508.504065 64.422152 
L 509.733467 63.210165 
L 510.143268 62.177173 
L 510.553069 64.156944 
L 511.37267 61.19857 
L 513.011873 55.037755 
L 513.421674 50.382041 
L 513.831475 49.610276 
L 514.241276 46.499388 
L 515.470678 47.520434 
L 515.880479 44.027661 
L 516.29028 36.841818 
L 516.70008 53.520771 
L 517.109881 57.24696 
L 518.749084 69.86025 
L 519.158885 60.959876 
L 519.568686 68.885629 
L 519.978486 68.649589 
L 521.617689 60.662844 
L 522.02749 62.74605 
L 522.437291 66.522614 
L 522.847092 71.500578 
L 524.076494 76.593892 
L 524.486295 72.017722 
L 524.896095 82.447057 
L 525.305896 81.164753 
L 525.715697 74.286593 
L 526.945099 67.23999 
L 527.3549 69.378912 
L 527.764701 65.728316 
L 528.174501 63.367956 
L 528.584302 67.661695 
L 529.813705 59.681554 
L 530.223505 65.997506 
L 530.633306 58.244146 
L 531.452908 50.592894 
L 532.68231 43.023839 
L 533.501911 49.063964 
L 533.911712 49.770722 
L 534.321513 49.708402 
L 535.550915 57.25227 
L 535.960716 55.104057 
L 536.370517 56.106552 
L 536.780317 53.728969 
L 537.190118 52.150992 
L 538.41952 60.693341 
L 538.829321 62.057843 
L 539.239122 77.923915 
L 539.648923 72.741735 
L 540.058723 78.065811 
L 541.288126 72.724512 
L 542.107727 55.061647 
L 542.107727 55.061647 
" clip-path="url(#peefd83d712)" style="fill: none; stroke: #0000ff; stroke-width: 1.5; stroke-linecap: square"/>
   </g>
   <g id="line2d_20">
    <path d="M 80.262273 188.402622 
L 81.081874 187.095779 
L 82.311277 186.392549 
L 82.721077 185.53522 
L 83.540679 184.78589 
L 83.95048 184.680447 
L 85.179882 184.630268 
L 86.409284 183.444373 
L 86.819085 183.123967 
L 88.868089 182.889547 
L 89.68769 183.457517 
L 91.326893 183.536283 
L 91.736694 183.228633 
L 92.146495 183.080748 
L 92.556295 183.137564 
L 93.785698 182.945845 
L 95.0151 182.317012 
L 95.424901 182.353821 
L 97.064104 182.092692 
L 97.883705 182.329152 
L 98.293506 182.08612 
L 99.522908 181.876886 
L 100.34251 181.273369 
L 101.162111 180.766683 
L 102.391514 179.489332 
L 103.211115 179.142023 
L 103.620916 179.356177 
L 104.030717 179.804331 
L 105.66992 180.068568 
L 106.489521 179.56949 
L 106.899322 179.270224 
L 108.128724 178.752725 
L 108.538525 178.220884 
L 109.358127 177.932302 
L 109.767927 178.037776 
L 110.99733 179.084624 
L 111.40713 179.021883 
L 112.226732 177.939327 
L 112.636533 177.353907 
L 114.275736 176.264487 
L 115.095337 174.157292 
L 115.505138 173.3313 
L 117.144341 172.867769 
L 117.963942 173.38721 
L 118.373743 173.591426 
L 119.603146 173.312685 
L 120.422747 172.707355 
L 122.881552 172.398312 
L 123.291352 172.567952 
L 124.110954 172.183381 
L 125.340356 171.919273 
L 126.159958 170.879224 
L 128.208961 169.840859 
L 128.618762 169.318957 
L 129.438364 169.331486 
L 129.848164 169.308241 
L 131.077567 169.776273 
L 132.71677 177.486802 
L 134.355973 180.462237 
L 134.765774 180.591248 
L 135.175574 180.52705 
L 135.585375 179.84959 
L 137.224578 179.124962 
L 138.04418 178.354394 
L 139.683383 177.546047 
L 140.093183 176.821159 
L 140.502984 176.322696 
L 140.912785 176.261412 
L 141.322586 176.687616 
L 142.551988 176.866386 
L 142.961789 176.790889 
L 143.78139 175.819182 
L 144.191191 175.061629 
L 145.420593 174.138612 
L 146.240195 172.104744 
L 147.059796 171.199857 
L 148.289199 171.908817 
L 149.518601 171.765594 
L 149.928402 172.552931 
L 151.157804 173.795868 
L 151.567605 174.457594 
L 152.387206 176.441541 
L 154.026409 176.980375 
L 154.846011 178.737606 
L 155.255811 179.061962 
L 155.665612 178.844538 
L 157.304815 179.048332 
L 157.714616 178.98352 
L 158.124417 178.742754 
L 158.534218 178.333772 
L 159.76362 177.944992 
L 160.583221 176.936864 
L 160.993022 176.429951 
L 161.402823 176.129228 
L 162.632225 176.012261 
L 163.042026 175.807495 
L 164.271428 176.834335 
L 165.50083 176.69749 
L 166.320432 177.124277 
L 167.140033 178.158531 
L 168.369436 178.148463 
L 168.779237 177.757579 
L 169.598838 177.362583 
L 170.008639 176.759616 
L 171.238041 175.79652 
L 171.647842 174.992899 
L 172.467443 174.356587 
L 174.106646 174.291806 
L 174.516447 173.928181 
L 175.745849 173.606027 
L 177.385052 173.38271 
L 177.794853 173.720631 
L 178.204654 173.790656 
L 178.614455 174.146609 
L 179.843857 173.93812 
L 181.073259 172.494237 
L 181.48306 172.096457 
L 182.712462 171.409771 
L 183.532064 170.306689 
L 184.351665 170.088909 
L 185.581068 171.00694 
L 185.990868 170.881717 
L 186.400669 170.924095 
L 187.220271 170.460628 
L 189.679075 172.49414 
L 191.318278 172.402424 
L 191.728079 171.963367 
L 192.957481 170.355509 
L 194.186884 169.579438 
L 195.826087 167.103762 
L 197.055489 166.448122 
L 197.46529 166.016026 
L 198.284891 165.661044 
L 199.924094 165.788404 
L 200.333895 165.661659 
L 203.2025 165.808476 
L 203.612301 166.072195 
L 204.022102 166.047493 
L 205.661305 165.310077 
L 206.480906 163.950205 
L 206.890707 163.31535 
L 207.300508 162.890731 
L 208.939711 162.762433 
L 209.349512 162.532739 
L 209.759312 162.753465 
L 211.398515 162.400912 
L 212.218117 161.455946 
L 213.037718 160.579483 
L 214.267121 160.060494 
L 215.496523 158.445967 
L 215.906324 158.07454 
L 217.955327 157.874662 
L 218.774929 158.282414 
L 220.414132 158.503529 
L 220.823933 158.449982 
L 221.233734 158.575755 
L 221.643534 158.558921 
L 222.872937 158.36568 
L 223.282737 158.092184 
L 224.51214 157.695861 
L 225.741542 158.789553 
L 228.610147 158.845042 
L 229.429749 158.469892 
L 229.839549 158.286331 
L 231.478753 158.367007 
L 232.298354 158.630176 
L 232.708155 160.003419 
L 233.117956 162.323149 
L 234.347358 164.040269 
L 234.757159 165.258926 
L 235.166959 165.723138 
L 235.57676 165.831753 
L 235.986561 166.354982 
L 237.215963 166.770989 
L 237.625764 167.122247 
L 238.035565 168.315717 
L 238.855166 171.954302 
L 240.084568 173.841192 
L 240.90417 177.160472 
L 241.313971 177.819251 
L 241.723771 177.760525 
L 242.953174 177.367827 
L 243.362975 176.537336 
L 244.182576 174.068166 
L 244.592377 172.767798 
L 245.821779 172.111511 
L 246.23158 171.754813 
L 246.641381 172.019763 
L 247.460982 173.126405 
L 248.690384 173.22997 
L 249.100185 173.428714 
L 249.509986 174.42318 
L 250.329587 174.737759 
L 251.55899 174.311393 
L 251.96879 174.728694 
L 252.378591 174.85764 
L 252.788392 174.70014 
L 253.198193 174.212716 
L 254.427595 174.125112 
L 254.837396 173.708296 
L 255.656997 174.009278 
L 256.066798 175.031424 
L 257.2962 175.917211 
L 257.706001 176.825303 
L 258.115802 177.337525 
L 258.935403 177.895233 
L 260.164806 178.601927 
L 261.394208 183.565226 
L 261.804009 186.317603 
L 263.853012 192.348016 
L 264.262813 194.243679 
L 264.672614 195.40225 
L 265.902016 195.893947 
L 267.131418 195.663088 
L 267.541219 195.959666 
L 268.770622 195.796015 
L 269.180422 195.259415 
L 270.000024 193.489947 
L 270.409825 192.36566 
L 271.639227 191.232795 
L 273.27843 188.199216 
L 274.917633 187.512659 
L 275.327434 187.123976 
L 276.147035 185.784629 
L 277.376437 185.124976 
L 279.01564 183.200467 
L 280.245043 182.439288 
L 281.474445 179.101976 
L 281.884246 178.689401 
L 283.113648 178.307776 
L 283.93325 177.24882 
L 284.34305 176.509365 
L 284.752851 175.999959 
L 286.392054 175.219064 
L 286.801855 174.333051 
L 287.621456 173.313818 
L 288.850859 172.710916 
L 289.67046 171.952813 
L 290.080261 171.775986 
L 290.490062 171.900043 
L 291.719464 171.680515 
L 292.129265 171.43567 
L 292.539065 171.040998 
L 292.948866 170.992793 
L 293.358667 171.167192 
L 294.588069 171.264929 
L 294.99787 171.101116 
L 295.817472 170.245146 
L 296.227272 169.502647 
L 297.456675 170.241229 
L 299.095878 167.829815 
L 300.32528 167.775103 
L 300.735081 167.546607 
L 301.554682 166.722007 
L 301.964483 166.402086 
L 303.193885 166.303572 
L 304.833088 164.23432 
L 306.062491 163.481267 
L 306.882092 162.179376 
L 307.701694 161.361251 
L 308.931096 161.325187 
L 309.340897 161.118867 
L 312.209502 161.085068 
L 313.029103 160.682044 
L 313.438904 160.379314 
L 314.668306 159.951426 
L 315.078107 159.39074 
L 317.536912 158.809755 
L 317.946713 158.588996 
L 319.176115 159.64902 
L 320.405517 160.01598 
L 320.815318 161.088953 
L 321.225119 161.696841 
L 321.634919 162.084423 
L 322.04472 162.270671 
L 323.274122 162.418426 
L 323.683923 162.762433 
L 324.503525 162.846508 
L 324.913325 163.527756 
L 326.552528 163.734076 
L 327.37213 165.509469 
L 327.781931 165.956684 
L 329.011333 166.931402 
L 329.421134 167.831336 
L 329.830935 168.170778 
L 330.240735 168.022376 
L 330.650536 167.610578 
L 331.879938 166.849496 
L 332.69954 165.337239 
L 333.519141 163.990899 
L 334.748544 163.397191 
L 335.568145 162.505545 
L 335.977946 162.086107 
L 336.387747 161.912517 
L 337.617149 162.388448 
L 338.02695 162.045607 
L 338.43675 162.036251 
L 338.846551 162.144509 
L 339.256352 161.998211 
L 340.485754 162.935537 
L 340.895555 162.64103 
L 342.124957 160.149231 
L 343.35436 158.725712 
L 343.76416 157.750605 
L 344.583762 156.6427 
L 344.993563 156.154758 
L 346.222965 155.46082 
L 346.632766 154.855782 
L 347.452367 154.483027 
L 349.911172 154.43725 
L 350.320972 154.321448 
L 350.730773 154.339739 
L 351.960175 154.052031 
L 352.369976 153.735704 
L 352.779777 153.73988 
L 353.599378 155.24058 
L 354.828781 155.788672 
L 356.058183 159.830476 
L 356.467984 160.483137 
L 358.107187 160.442929 
L 358.516988 160.683177 
L 359.336589 162.402433 
L 360.565991 162.56016 
L 361.385593 161.765442 
L 362.205194 160.416997 
L 363.434597 160.899274 
L 363.844397 160.855892 
L 364.254198 161.009896 
L 364.663999 160.828374 
L 365.0738 160.367271 
L 367.122804 159.58152 
L 367.942405 158.871136 
L 369.581608 158.062982 
L 369.991409 158.313525 
L 370.40121 158.266486 
L 370.81101 157.952134 
L 372.040413 157.512882 
L 372.450213 157.66763 
L 372.860014 157.500515 
L 373.269815 157.074732 
L 373.679616 154.27402 
L 374.909018 154.861318 
L 375.318819 154.614821 
L 375.728619 154.92885 
L 377.777623 155.016227 
L 378.187424 155.114871 
L 378.597225 155.402515 
L 379.416826 156.870257 
L 380.646229 156.767599 
L 381.056029 156.591711 
L 381.46583 156.958865 
L 382.285432 156.769542 
L 383.514834 156.728977 
L 383.924635 156.19351 
L 384.744236 155.800618 
L 385.154037 155.124907 
L 386.383439 154.603879 
L 387.203041 153.964945 
L 387.612841 153.741305 
L 389.252044 153.581312 
L 390.071646 153.172849 
L 390.891247 153.171586 
L 392.12065 152.748068 
L 392.530451 152.414098 
L 393.759853 152.226587 
L 394.989255 151.413448 
L 395.399056 150.52805 
L 396.218657 149.419174 
L 396.628458 149.034505 
L 397.85786 148.604124 
L 398.677462 147.838704 
L 399.497063 147.891474 
L 400.726466 147.543388 
L 401.136266 147.302655 
L 401.546067 147.615291 
L 402.365669 146.877422 
L 404.004872 144.992992 
L 404.414673 145.074187 
L 404.824473 145.274323 
L 405.234274 145.281316 
L 406.463676 145.06933 
L 407.693079 144.248065 
L 410.561684 144.076709 
L 410.971485 143.898069 
L 412.200887 145.025496 
L 412.610688 144.428939 
L 413.430289 142.734869 
L 413.84009 141.471957 
L 415.479293 140.084373 
L 416.708695 139.767334 
L 417.938098 139.911722 
L 418.347898 140.102535 
L 419.1675 140.123254 
L 419.577301 139.912985 
L 420.806703 139.408629 
L 421.626304 138.804821 
L 422.036105 138.704623 
L 422.445906 138.321411 
L 424.085109 137.980998 
L 424.49491 138.040469 
L 425.314511 137.734761 
L 426.543913 137.719966 
L 426.953714 138.187512 
L 427.363515 138.415846 
L 428.183116 138.652695 
L 429.82232 139.43155 
L 430.23212 139.393025 
L 430.641921 139.069511 
L 431.051722 138.50753 
L 432.281124 137.936775 
L 433.100726 136.939395 
L 433.920327 135.889245 
L 435.55953 135.401563 
L 435.969331 135.160473 
L 436.379132 134.764571 
L 436.788932 134.818506 
L 438.018335 135.148818 
L 438.428135 136.6445 
L 439.247737 141.85627 
L 439.657538 146.175261 
L 440.88694 151.611124 
L 441.296741 155.893629 
L 441.706542 158.722248 
L 442.116342 159.197596 
L 442.526143 160.043368 
L 443.755545 161.93097 
L 444.984948 176.603185 
L 445.394748 184.018754 
L 446.624151 190.217285 
L 447.853553 212.444083 
L 448.263354 218.861852 
L 449.492756 225.415235 
L 449.902557 231.792083 
L 450.312357 234.627662 
L 450.722158 236.078182 
L 451.131959 235.87306 
L 452.361361 234.967946 
L 453.180963 228.641343 
L 454.000564 224.027457 
L 455.229967 221.635532 
L 456.459369 209.923245 
L 458.098572 206.768943 
L 458.508373 204.118253 
L 459.327974 197.91166 
L 459.737775 195.548839 
L 460.967177 193.18822 
L 461.376978 191.133018 
L 461.786779 189.797556 
L 462.60638 186.67825 
L 463.835782 185.170396 
L 464.655384 181.910037 
L 465.065185 180.710611 
L 465.474985 179.88491 
L 466.704388 179.099937 
L 467.93379 175.7567 
L 468.343591 174.567828 
L 469.572993 172.673168 
L 469.982794 171.073728 
L 470.392595 170.359232 
L 470.802395 170.895929 
L 471.212196 171.686277 
L 472.441598 172.424989 
L 472.851399 172.983053 
L 473.2612 172.861359 
L 474.080801 171.586144 
L 476.129805 170.266513 
L 476.539606 170.282571 
L 476.949407 169.885276 
L 478.178809 170.286358 
L 478.58861 169.740273 
L 479.408211 168.135361 
L 479.818012 167.819423 
L 481.047414 167.993174 
L 481.867016 170.541336 
L 482.276817 170.61871 
L 482.686617 171.523015 
L 483.91602 171.710493 
L 484.32582 171.560893 
L 484.735621 170.821178 
L 485.555223 167.515463 
L 486.784625 166.894366 
L 487.194426 166.912496 
L 487.604226 165.898638 
L 488.423828 165.166433 
L 489.65323 165.920328 
L 490.063031 167.11124 
L 490.472832 166.890255 
L 490.882632 166.010037 
L 492.521836 164.557736 
L 493.341437 161.668093 
L 494.161039 159.823581 
L 495.390441 158.824517 
L 496.619843 156.205262 
L 497.029644 155.108655 
L 498.259046 154.115387 
L 498.668847 153.151255 
L 499.898249 151.359189 
L 501.127651 150.963708 
L 501.947253 150.402212 
L 502.357054 150.376474 
L 502.766854 150.231827 
L 503.996257 150.390104 
L 504.815858 149.52426 
L 505.225659 148.986527 
L 505.63546 148.167463 
L 506.864862 147.369766 
L 507.274663 146.698846 
L 507.684464 146.664238 
L 508.504065 145.116758 
L 509.733467 144.096231 
L 510.143268 143.260851 
L 510.553069 142.690226 
L 511.37267 141.885212 
L 512.602073 141.458587 
L 513.011873 141.068091 
L 513.831475 139.839301 
L 514.241276 139.101723 
L 515.880479 138.002494 
L 516.70008 136.900902 
L 517.109881 137.063647 
L 518.749084 137.487196 
L 519.158885 138.439706 
L 519.978486 139.560464 
L 522.02749 140.144718 
L 522.847092 140.658527 
L 524.076494 142.611071 
L 524.486295 143.915648 
L 525.305896 145.148647 
L 525.715697 146.080113 
L 527.3549 146.666051 
L 527.764701 146.419555 
L 528.174501 146.424152 
L 528.584302 145.78907 
L 529.813705 145.370021 
L 530.223505 144.439784 
L 530.633306 144.029994 
L 531.043107 143.421879 
L 531.452908 142.604499 
L 532.68231 141.678666 
L 533.501911 139.654963 
L 533.911712 139.229763 
L 534.321513 139.137788 
L 537.190118 139.184018 
L 538.41952 138.882713 
L 539.239122 139.174694 
L 540.058723 141.982075 
L 541.697927 144.021868 
L 542.107727 144.04576 
L 542.107727 144.04576 
" clip-path="url(#peefd83d712)" style="fill: none; stroke-dasharray: 5.55,2.4; stroke-dashoffset: 0; stroke: #ff0000; stroke-width: 1.5"/>
   </g>
   <g id="patch_3">
    <path d="M 57.17 246.04 
L 57.17 26.88 
" style="fill: none; stroke: #000000; stroke-width: 0.8; stroke-linejoin: miter; stroke-linecap: square"/>
   </g>
   <g id="patch_4">
    <path d="M 565.2 246.04 
L 565.2 26.88 
" style="fill: none; stroke: #000000; stroke-width: 0.8; stroke-linejoin: miter; stroke-linecap: square"/>
   </g>
   <g id="patch_5">
    <path d="M 57.17 246.04 
L 565.2 246.04 
" style="fill: none; stroke: #000000; stroke-width: 0.8; stroke-linejoin: miter; stroke-linecap: square"/>
   </g>
   <g id="patch_6">
    <path d="M 57.17 26.88 
L 565.2 26.88 
" style="fill: none; stroke: #000000; stroke-width: 0.8; stroke-linejoin: miter; stroke-linecap: square"/>
   </g>
   <g id="text_21">
    <!-- Real vs Predicted Stock Prices -->
    <g transform="translate(221.412812 20.88) scale(0.12 -0.12)">
     <defs>
      <path id="DejaVuSans-52" d="M 2841 2188 
Q 3044 2119 3236 1894 
Q 3428 1669 3622 1275 
L 4263 0 
L 3584 0 
L 2988 1197 
Q 2756 1666 2539 1819 
Q 2322 1972 1947 1972 
L 1259 1972 
L 1259 0 
L 628 0 
L 628 4666 
L 2053 4666 
Q 2853 4666 3247 4331 
Q 3641 3997 3641 3322 
Q 3641 2881 3436 2590 
Q 3231 2300 2841 2188 
z
M 1259 4147 
L 1259 2491 
L 2053 2491 
Q 2509 2491 2742 2702 
Q 2975 2913 2975 3322 
Q 2975 3731 2742 3939 
Q 2509 4147 2053 4147 
L 1259 4147 
z
" transform="scale(0.015625)"/>
      <path id="DejaVuSans-6c" d="M 603 4863 
L 1178 4863 
L 1178 0 
L 603 0 
L 603 4863 
z
" transform="scale(0.015625)"/>
      <path id="DejaVuSans-76" d="M 191 3500 
L 800 3500 
L 1894 563 
L 2988 3500 
L 3597 3500 
L 2284 0 
L 1503 0 
L 191 3500 
z
" transform="scale(0.015625)"/>
      <path id="DejaVuSans-73" d="M 2834 3397 
L 2834 2853 
Q 2591 2978 2328 3040 
Q 2066 3103 1784 3103 
Q 1356 3103 1142 2972 
Q 928 2841 928 2578 
Q 928 2378 1081 2264 
Q 1234 2150 1697 2047 
L 1894 2003 
Q 2506 1872 2764 1633 
Q 3022 1394 3022 966 
Q 3022 478 2636 193 
Q 2250 -91 1575 -91 
Q 1294 -91 989 -36 
Q 684 19 347 128 
L 347 722 
Q 666 556 975 473 
Q 1284 391 1588 391 
Q 1994 391 2212 530 
Q 2431 669 2431 922 
Q 2431 1156 2273 1281 
Q 2116 1406 1581 1522 
L 1381 1569 
Q 847 1681 609 1914 
Q 372 2147 372 2553 
Q 372 3047 722 3315 
Q 1072 3584 1716 3584 
Q 2034 3584 2315 3537 
Q 2597 3491 2834 3397 
z
" transform="scale(0.015625)"/>
      <path id="DejaVuSans-64" d="M 2906 2969 
L 2906 4863 
L 3481 4863 
L 3481 0 
L 2906 0 
L 2906 525 
Q 2725 213 2448 61 
Q 2172 -91 1784 -91 
Q 1150 -91 751 415 
Q 353 922 353 1747 
Q 353 2572 751 3078 
Q 1150 3584 1784 3584 
Q 2172 3584 2448 3432 
Q 2725 3281 2906 2969 
z
M 947 1747 
Q 947 1113 1208 752 
Q 1469 391 1925 391 
Q 2381 391 2643 752 
Q 2906 1113 2906 1747 
Q 2906 2381 2643 2742 
Q 2381 3103 1925 3103 
Q 1469 3103 1208 2742 
Q 947 2381 947 1747 
z
" transform="scale(0.015625)"/>
     </defs>
     <use xlink:href="#DejaVuSans-52"/>
     <use xlink:href="#DejaVuSans-65" transform="translate(64.982422 0)"/>
     <use xlink:href="#DejaVuSans-61" transform="translate(126.505859 0)"/>
     <use xlink:href="#DejaVuSans-6c" transform="translate(187.785156 0)"/>
     <use xlink:href="#DejaVuSans-20" transform="translate(215.568359 0)"/>
     <use xlink:href="#DejaVuSans-76" transform="translate(247.355469 0)"/>
     <use xlink:href="#DejaVuSans-73" transform="translate(306.535156 0)"/>
     <use xlink:href="#DejaVuSans-20" transform="translate(358.634766 0)"/>
     <use xlink:href="#DejaVuSans-50" transform="translate(390.421875 0)"/>
     <use xlink:href="#DejaVuSans-72" transform="translate(448.974609 0)"/>
     <use xlink:href="#DejaVuSans-65" transform="translate(487.837891 0)"/>
     <use xlink:href="#DejaVuSans-64" transform="translate(549.361328 0)"/>
     <use xlink:href="#DejaVuSans-69" transform="translate(612.837891 0)"/>
     <use xlink:href="#DejaVuSans-63" transform="translate(640.621094 0)"/>
     <use xlink:href="#DejaVuSans-74" transform="translate(695.601562 0)"/>
     <use xlink:href="#DejaVuSans-65" transform="translate(734.810547 0)"/>
     <use xlink:href="#DejaVuSans-64" transform="translate(796.333984 0)"/>
     <use xlink:href="#DejaVuSans-20" transform="translate(859.810547 0)"/>
     <use xlink:href="#DejaVuSans-53" transform="translate(891.597656 0)"/>
     <use xlink:href="#DejaVuSans-74" transform="translate(955.074219 0)"/>
     <use xlink:href="#DejaVuSans-6f" transform="translate(994.283203 0)"/>
     <use xlink:href="#DejaVuSans-63" transform="translate(1055.464844 0)"/>
     <use xlink:href="#DejaVuSans-6b" transform="translate(1110.445312 0)"/>
     <use xlink:href="#DejaVuSans-20" transform="translate(1168.355469 0)"/>
     <use xlink:href="#DejaVuSans-50" transform="translate(1200.142578 0)"/>
     <use xlink:href="#DejaVuSans-72" transform="translate(1258.695312 0)"/>
     <use xlink:href="#DejaVuSans-69" transform="translate(1299.808594 0)"/>
     <use xlink:href="#DejaVuSans-63" transform="translate(1327.591797 0)"/>
     <use xlink:href="#DejaVuSans-65" transform="translate(1382.572266 0)"/>
     <use xlink:href="#DejaVuSans-73" transform="translate(1444.095703 0)"/>
    </g>
   </g>
   <g id="legend_1">
    <g id="patch_7">
     <path d="M 64.17 64.23625 
L 175.893438 64.23625 
Q 177.893438 64.23625 177.893438 62.23625 
L 177.893438 33.88 
Q 177.893438 31.88 175.893438 31.88 
L 64.17 31.88 
Q 62.17 31.88 62.17 33.88 
L 62.17 62.23625 
Q 62.17 64.23625 64.17 64.23625 
z
" style="fill: #ffffff; opacity: 0.8; stroke: #cccccc; stroke-linejoin: miter"/>
    </g>
    <g id="line2d_21">
     <path d="M 66.17 39.978438 
L 76.17 39.978438 
L 86.17 39.978438 
" style="fill: none; stroke: #0000ff; stroke-width: 1.5; stroke-linecap: square"/>
    </g>
    <g id="text_22">
     <!-- Real Prices -->
     <g transform="translate(94.17 43.478438) scale(0.1 -0.1)">
      <use xlink:href="#DejaVuSans-52"/>
      <use xlink:href="#DejaVuSans-65" transform="translate(64.982422 0)"/>
      <use xlink:href="#DejaVuSans-61" transform="translate(126.505859 0)"/>
      <use xlink:href="#DejaVuSans-6c" transform="translate(187.785156 0)"/>
      <use xlink:href="#DejaVuSans-20" transform="translate(215.568359 0)"/>
      <use xlink:href="#DejaVuSans-50" transform="translate(247.355469 0)"/>
      <use xlink:href="#DejaVuSans-72" transform="translate(305.908203 0)"/>
      <use xlink:href="#DejaVuSans-69" transform="translate(347.021484 0)"/>
      <use xlink:href="#DejaVuSans-63" transform="translate(374.804688 0)"/>
      <use xlink:href="#DejaVuSans-65" transform="translate(429.785156 0)"/>
      <use xlink:href="#DejaVuSans-73" transform="translate(491.308594 0)"/>
     </g>
    </g>
    <g id="line2d_22">
     <path d="M 66.17 54.656563 
L 76.17 54.656563 
L 86.17 54.656563 
" style="fill: none; stroke-dasharray: 5.55,2.4; stroke-dashoffset: 0; stroke: #ff0000; stroke-width: 1.5"/>
    </g>
    <g id="text_23">
     <!-- Predicted Prices -->
     <g transform="translate(94.17 58.156563) scale(0.1 -0.1)">
      <use xlink:href="#DejaVuSans-50"/>
      <use xlink:href="#DejaVuSans-72" transform="translate(58.552734 0)"/>
      <use xlink:href="#DejaVuSans-65" transform="translate(97.416016 0)"/>
      <use xlink:href="#DejaVuSans-64" transform="translate(158.939453 0)"/>
      <use xlink:href="#DejaVuSans-69" transform="translate(222.416016 0)"/>
      <use xlink:href="#DejaVuSans-63" transform="translate(250.199219 0)"/>
      <use xlink:href="#DejaVuSans-74" transform="translate(305.179688 0)"/>
      <use xlink:href="#DejaVuSans-65" transform="translate(344.388672 0)"/>
      <use xlink:href="#DejaVuSans-64" transform="translate(405.912109 0)"/>
      <use xlink:href="#DejaVuSans-20" transform="translate(469.388672 0)"/>
      <use xlink:href="#DejaVuSans-50" transform="translate(501.175781 0)"/>
      <use xlink:href="#DejaVuSans-72" transform="translate(559.728516 0)"/>
      <use xlink:href="#DejaVuSans-69" transform="translate(600.841797 0)"/>
      <use xlink:href="#DejaVuSans-63" transform="translate(628.625 0)"/>
      <use xlink:href="#DejaVuSans-65" transform="translate(683.605469 0)"/>
      <use xlink:href="#DejaVuSans-73" transform="translate(745.128906 0)"/>
     </g>
    </g>
   </g>
  </g>
 </g>
 <defs>
  <clipPath id="peefd83d712">
   <rect x="57.17" y="26.88" width="508.03" height="219.16"/>
  </clipPath>
 </defs>
</svg>
